<?xml version="1.0" standalone="no"?>
<!DOCTYPE svg PUBLIC "-//W3C//DTD SVG 20010904//EN"
 "http://www.w3.org/TR/2001/REC-SVG-20010904/DTD/svg10.dtd">
<svg version="1.0" xmlns="http://www.w3.org/2000/svg"
 width="512.000000pt" height="512.000000pt" viewBox="0 0 512.000000 512.000000"
 preserveAspectRatio="xMidYMid meet">
<metadata>
Created by potrace 1.11, written by Peter Selinger 2001-2013
</metadata>
<g transform="translate(0.000000,512.000000) scale(0.100000,-0.100000)"
fill="#000000" stroke="none">
<path d="M0 2560 l0 -2560 2560 0 2560 0 0 2560 0 2560 -2560 0 -2560 0 0
-2560z m2082 1319 c140 -28 309 -91 477 -178 356 -184 442 -219 606 -248 244
-42 419 25 713 273 77 66 126 83 188 66 89 -24 144 -94 144 -184 0 -70 -33
-117 -147 -212 -189 -157 -349 -249 -518 -298 -70 -20 -102 -23 -255 -23 -158
0 -186 3 -283 28 -128 32 -279 89 -397 151 -314 162 -386 196 -475 224 -317
100 -515 58 -797 -171 -137 -112 -155 -124 -194 -131 -73 -14 -171 40 -200
111 -20 46 -17 110 6 157 21 43 112 126 257 233 183 136 339 198 568 227 55 7
209 -5 307 -25z m-141 -909 c218 -22 441 -99 709 -245 294 -159 441 -208 635
-209 106 0 129 3 199 27 106 37 189 88 319 194 136 110 152 120 198 128 107
18 209 -73 209 -187 0 -71 -30 -116 -139 -206 -299 -247 -505 -335 -786 -333
-240 1 -481 76 -796 247 -337 184 -555 241 -759 200 -142 -29 -272 -104 -462
-267 -80 -69 -131 -87 -196 -70 -83 22 -133 81 -140 166 -8 97 35 150 253 317
180 137 371 218 560 238 39 4 75 8 81 9 7 0 58 -4 115 -9z m199 -965 c180 -47
263 -83 600 -256 326 -169 548 -206 766 -129 87 30 198 101 324 206 139 116
184 133 265 95 75 -35 115 -95 115 -173 0 -66 -32 -116 -116 -188 -309 -260
-517 -352 -799 -353 -262 0 -444 60 -910 300 -305 158 -527 197 -733 127 -101
-33 -185 -85 -315 -191 -149 -121 -161 -128 -228 -128 -44 0 -65 6 -96 27 -76
50 -104 158 -63 243 34 71 293 272 455 352 167 84 262 104 470 99 135 -3 176
-8 265 -31z"/>
</g>
</svg>
