<svg version="1" xmlns="http://www.w3.org/2000/svg" width="533.333" height="533.333" viewBox="0 0 400.000000 400.000000"><path d="M5 34.3c0 14 2.2 23.4 8.2 35 5.2 10 17 22.3 26.9 28l6.7 3.8 1.7 7.2c4.8 20.2 18.8 38.3 35.7 46.4 5.6 2.7 5.8 2.9 6.9 8.3 6.3 30.2 31 52.5 61.8 55.6l7.1.7V276H85v8.2c0 23.3 6.5 42.9 19.5 59.7 16.5 21 42.8 33.1 72.1 33.1h9.4v-74h36.6c38.6 0 45.9-.6 57.6-4.6 11.8-4 19.5-8.9 29.3-18.8 10.2-10.3 14.5-17 18.6-28.8 3.9-11.7 4.9-20.7 4.9-45.8 0-19.7.2-22.5 2.1-27.5 2.7-7.3 10.4-15.6 17.7-19.2 5.5-2.7 6.3-2.8 24.1-3.1l18.4-.4-.6-11.6c-.8-14.2-2.4-20.9-8.3-32.9-7.7-15.7-21.5-28.7-39.5-37.2-26.5-12.7-58.5-14.5-85.4-5-4.4 1.5-8 2.7-8.1 2.6-.1-.1-1.2-2.2-2.4-4.7-8.3-16.7-24.1-31-41.6-37.6-13.9-5.3-14.8-5.3-113.1-5.4H5v11.3zm187.3 18.2c17.6 3.7 32.4 17.2 37.7 34.3 1.9 6 2 9.4 2 56.8V194h27V99.2l4.8-2c11.5-5 20-6.6 34.2-6.6 15.7 0 25.5 2.1 37.3 8.1 13.1 6.5 21 13.9 26.9 25.1l3 5.7-6.3.8c-8.2 1-17.1 4.1-24 8.3-8.1 4.9-18 15.8-22.3 24.6-5.9 12.2-6.6 16.4-6.6 42.8 0 26.2-1 33-5.8 42.6-6 11.9-17 21.3-30.1 25.6-6.2 2.1-8.8 2.2-45.3 2.6l-38.8.4v-84l-18.7-.4c-21.6-.5-26.4-1.7-35.6-9.2-5.2-4.2-12-13.1-13.2-17.3l-.6-2.3 33.8-.2 33.8-.3.3-13.3.3-13.2h-37.9c-41 0-45.1-.4-54.1-5.7-8.3-4.9-16.5-14.1-18.6-21l-.6-2.3 55.3-.2 55.3-.3.3-13.2.3-13.2-61.4-.3-61.3-.3-7.7-3.8c-10.5-5.2-19.4-14.6-22.1-23.5l-.7-2.2h76.3c62.4 0 77.5.3 83.1 1.5zM160 326.1v23.1l-2.7-.6c-1.6-.4-6.6-2.5-11.3-4.8-11.8-5.7-21.1-15-26.8-26.8-2.3-4.7-4.4-9.7-4.8-11.3l-.6-2.7H160v23.1z"/></svg>