<?xml version="1.0" standalone="no"?>
<!DOCTYPE svg PUBLIC "-//W3C//DTD SVG 20010904//EN"
 "http://www.w3.org/TR/2001/REC-SVG-20010904/DTD/svg10.dtd">
<svg version="1.0" xmlns="http://www.w3.org/2000/svg"
 width="512.000000pt" height="512.000000pt" viewBox="0 0 512.000000 512.000000"
 preserveAspectRatio="xMidYMid meet">
<metadata>
Created by potrace 1.11, written by Peter Selinger 2001-2013
</metadata>
<g transform="translate(0.000000,512.000000) scale(0.100000,-0.100000)"
fill="#000000" stroke="none">
<path d="M4207 5080 c-182 -56 -316 -217 -353 -420 -3 -19 -6 -964 -6 -2100 0
-1581 2 -2079 12 -2125 38 -190 188 -353 366 -399 171 -44 337 4 465 134 76
77 124 167 144 272 19 102 18 4153 -1 4247 -28 136 -128 277 -244 345 -113 66
-261 84 -383 46z"/>
<path d="M2432 4235 c-176 -49 -317 -204 -357 -393 -22 -102 -22 -3327 0
-3420 46 -197 205 -358 387 -392 262 -50 509 113 578 380 16 63 17 180 16
1746 -2 1668 -2 1679 -23 1734 -36 97 -72 156 -134 218 -55 55 -150 113 -211
129 -53 13 -204 12 -256 -2z"/>
<path d="M655 3387 c-167 -43 -284 -155 -354 -336 l-25 -66 -3 -1240 c-2
-1371 -4 -1319 62 -1450 123 -245 408 -342 652 -224 85 41 188 146 228 233 53
116 49 14 52 1373 4 1353 5 1314 -48 1431 -68 149 -223 269 -371 287 -94 12
-122 11 -193 -8z"/>
</g>
</svg>
