<?xml version="1.0" standalone="no"?>
<!DOCTYPE svg PUBLIC "-//W3C//DTD SVG 20010904//EN"
 "http://www.w3.org/TR/2001/REC-SVG-20010904/DTD/svg10.dtd">
<svg version="1.0" xmlns="http://www.w3.org/2000/svg"
 width="400.000000pt" height="400.000000pt" viewBox="0 0 400.000000 400.000000"
 preserveAspectRatio="xMidYMid meet">
<metadata>
Created by potrace 1.11, written by Peter Selinger 2001-2013
</metadata>
<g transform="translate(0.000000,400.000000) scale(0.100000,-0.100000)"
fill="#000000" stroke="none">
<path d="M0 2000 l0 -2000 2000 0 2000 0 0 2000 0 2000 -2000 0 -2000 0 0
-2000z m2052 1329 c37 -15 93 -42 124 -60 69 -42 172 -150 209 -222 l28 -53
61 22 c100 36 192 47 322 41 219 -10 385 -78 520 -212 121 -119 184 -265 184
-427 l0 -68 -118 0 c-145 0 -202 -15 -265 -70 -84 -74 -91 -101 -98 -365 -5
-216 -7 -235 -31 -304 -63 -173 -194 -305 -369 -369 -74 -27 -74 -27 -401 -30
l-328 -3 0 -285 0 -284 -88 0 c-109 0 -219 26 -322 77 -57 28 -95 57 -160 122
-140 141 -200 286 -200 483 l0 98 285 0 285 0 0 215 0 214 -37 6 c-192 29
-308 93 -398 220 -46 64 -94 178 -95 222 0 15 -16 30 -57 53 -130 74 -235 210
-267 350 -8 34 -16 63 -18 65 -2 1 -23 13 -48 25 -25 13 -75 53 -111 89 -109
109 -159 232 -159 393 l0 89 743 -3 742 -3 67 -26z"/>
<path d="M720 3133 c0 -26 67 -118 108 -148 89 -65 86 -65 599 -65 l463 0 0
-105 0 -105 -425 0 c-347 0 -425 -2 -425 -13 0 -8 17 -38 38 -67 41 -59 113
-114 170 -130 22 -6 164 -10 340 -10 l302 0 0 -105 0 -105 -261 0 -260 0 7
-22 c11 -37 62 -105 97 -132 72 -55 120 -68 273 -74 l144 -5 0 -319 0 -320
313 4 312 3 67 32 c84 39 155 109 193 188 29 60 29 62 36 295 5 218 8 240 31
301 61 163 194 273 363 302 l63 11 -25 50 c-37 73 -111 140 -206 185 -101 48
-160 61 -282 61 -106 0 -177 -13 -248 -44 l-48 -21 -2 -365 -2 -365 -102 -3
-102 -3 -3 404 -3 403 -38 76 c-43 88 -102 146 -187 187 l-55 26 -622 3 c-343
1 -623 -1 -623 -5z"/>
<path d="M1345 1183 c32 -135 148 -258 295 -314 l50 -19 0 180 0 180 -176 0
-176 0 7 -27z"/>
</g>
</svg>
