<?xml version="1.0" standalone="no"?>
<!DOCTYPE svg PUBLIC "-//W3C//DTD SVG 20010904//EN"
 "http://www.w3.org/TR/2001/REC-SVG-20010904/DTD/svg10.dtd">
<svg version="1.0" xmlns="http://www.w3.org/2000/svg"
 width="300.000000pt" height="300.000000pt" viewBox="0 0 300.000000 300.000000"
 preserveAspectRatio="xMidYMid meet">
<metadata>
Created by potrace 1.11, written by Peter Selinger 2001-2013
</metadata>
<g transform="translate(0.000000,300.000000) scale(0.100000,-0.100000)"
fill="#000000" stroke="none">
<path d="M0 1500 l0 -1500 1500 0 1500 0 0 1500 0 1500 -1500 0 -1500 0 0
-1500z m2294 938 c12 -17 16 -50 16 -143 0 -180 30 -165 -326 -165 l-294 0 0
-777 c0 -708 -1 -778 -17 -795 -14 -16 -34 -18 -171 -18 -131 0 -158 3 -174
17 -17 15 -18 53 -18 795 l0 778 -292 0 c-257 0 -294 2 -310 17 -16 14 -18 33
-18 146 0 107 3 134 17 149 15 17 53 18 794 18 l778 0 15 -22z"/>
</g>
</svg>
