<?xml version="1.0" standalone="no"?>
<!DOCTYPE svg PUBLIC "-//W3C//DTD SVG 20010904//EN"
 "http://www.w3.org/TR/2001/REC-SVG-20010904/DTD/svg10.dtd">
<svg version="1.0" xmlns="http://www.w3.org/2000/svg"
 width="400.000000pt" height="400.000000pt" viewBox="0 0 400.000000 400.000000"
 preserveAspectRatio="xMidYMid meet">
<metadata>
Created by potrace 1.11, written by Peter Selinger 2001-2013
</metadata>
<g transform="translate(0.000000,400.000000) scale(0.100000,-0.100000)"
fill="#000000" stroke="none">
<path d="M52 3638 c6 -153 31 -248 95 -358 53 -90 172 -207 256 -250 51 -26
69 -41 73 -60 36 -178 83 -270 199 -386 61 -61 111 -101 155 -124 36 -18 66
-34 68 -36 2 -1 11 -33 19 -71 33 -145 118 -286 231 -379 110 -91 238 -142
395 -159 l57 -6 0 -285 0 -284 -370 0 -370 0 0 -122 c1 -253 75 -442 244 -617
168 -174 357 -254 629 -268 l127 -6 0 371 0 372 348 0 c191 0 386 5 432 11
185 23 326 93 462 229 74 75 93 101 136 191 73 150 82 205 82 472 0 123 5 250
11 282 21 116 88 208 191 262 52 27 58 28 241 31 l187 4 0 66 c-1 231 -79 423
-234 578 -118 117 -264 197 -446 245 -217 57 -473 47 -668 -27 -36 -13 -66
-23 -67 -22 -1 2 -18 33 -38 69 -80 145 -192 251 -342 324 -170 83 -102 78
-1164 82 l-944 4 5 -133z m1883 -163 c193 -50 340 -202 380 -392 12 -54 15
-170 15 -545 l0 -478 130 0 130 0 0 474 0 473 58 26 c88 39 167 57 282 64 237
13 452 -60 595 -202 50 -50 135 -180 123 -189 -1 -2 -36 -8 -75 -15 -198 -31
-365 -153 -449 -328 -55 -113 -64 -176 -64 -443 0 -255 -7 -306 -57 -410 -35
-73 -150 -187 -226 -223 -106 -51 -159 -57 -554 -57 l-363 0 0 419 0 419 -192
4 -193 3 -67 32 c-80 38 -159 109 -199 178 -52 91 -75 85 311 85 l340 0 0 129
0 130 -407 3 -408 3 -67 32 c-80 38 -159 109 -199 178 -54 93 -103 85 526 85
l555 0 0 130 0 129 -612 3 c-609 3 -613 3 -668 25 -81 33 -166 106 -211 182
-22 36 -39 71 -39 78 0 11 140 13 773 13 661 0 781 -2 832 -15z m-335 -2736
l0 -231 -32 7 c-18 4 -67 23 -108 42 -139 66 -291 249 -316 381 l-6 32 231 0
231 0 0 -231z"/>
</g>
</svg>
