<?xml version="1.0" standalone="no"?>
<!DOCTYPE svg PUBLIC "-//W3C//DTD SVG 20010904//EN"
 "http://www.w3.org/TR/2001/REC-SVG-20010904/DTD/svg10.dtd">
<svg version="1.0" xmlns="http://www.w3.org/2000/svg"
 width="400.000000pt" height="400.000000pt" viewBox="0 0 400.000000 400.000000"
 preserveAspectRatio="xMidYMid meet">
<metadata>
Created by potrace 1.11, written by Peter Selinger 2001-2013
</metadata>
<g transform="translate(0.000000,400.000000) scale(0.100000,-0.100000)"
fill="#000000" stroke="none">
<path d="M50 3670 c0 -225 77 -413 224 -548 56 -50 164 -122 185 -122 6 0 13
-12 16 -27 31 -152 71 -241 151 -343 52 -67 140 -138 219 -177 27 -14 51 -27
53 -28 2 -2 10 -34 17 -72 8 -37 33 -104 54 -148 115 -231 306 -361 574 -390
l57 -6 0 -285 0 -284 -370 0 -370 0 0 -120 c0 -71 7 -153 16 -198 62 -304 300
-562 599 -651 82 -24 210 -41 312 -41 l73 0 0 370 0 370 348 0 c191 0 386 5
432 11 102 12 229 54 306 100 130 78 260 228 319 368 46 110 55 177 55 416 0
326 16 391 122 491 85 81 133 94 338 94 l170 0 0 64 c0 153 -42 315 -111 432
-51 88 -190 223 -284 278 -299 174 -695 203 -1005 72 -11 -4 -24 11 -48 57
-94 182 -281 331 -489 390 -77 21 -86 21 -1020 25 l-943 3 0 -101z m1861 -190
c30 -5 91 -28 135 -50 137 -67 237 -197 270 -349 11 -51 14 -172 14 -543 l0
-478 130 0 130 0 0 474 0 474 63 26 c96 41 163 56 277 63 299 17 576 -114 689
-327 18 -34 31 -63 29 -64 -1 -2 -36 -8 -75 -15 -197 -31 -363 -151 -448 -323
-55 -112 -65 -180 -65 -439 0 -125 -4 -251 -10 -280 -5 -30 -28 -91 -50 -135
-67 -137 -197 -237 -349 -270 -50 -10 -156 -14 -428 -14 l-363 0 0 419 0 419
-192 4 -193 3 -67 32 c-80 38 -159 109 -199 178 -52 91 -75 85 311 85 l340 0
0 130 0 130 -384 0 c-420 0 -446 3 -549 64 -52 30 -130 113 -158 168 -38 74
-81 68 536 68 l555 0 0 130 0 130 -594 0 c-567 0 -597 1 -659 20 -110 34 -220
132 -262 234 -8 20 -15 38 -15 41 0 10 1526 5 1581 -5z m-311 -2740 c0 -139
-4 -230 -10 -230 -26 0 -142 50 -193 84 -112 75 -229 234 -252 344 l-7 32 231
0 231 0 0 -230z"/>
</g>
</svg>
