<?xml version="1.0" standalone="no"?>
<!DOCTYPE svg PUBLIC "-//W3C//DTD SVG 20010904//EN"
 "http://www.w3.org/TR/2001/REC-SVG-20010904/DTD/svg10.dtd">
<svg version="1.0" xmlns="http://www.w3.org/2000/svg"
 width="512.000000pt" height="512.000000pt" viewBox="0 0 512.000000 512.000000"
 preserveAspectRatio="xMidYMid meet">
<metadata>
Created by potrace 1.11, written by Peter Selinger 2001-2013
</metadata>
<g transform="translate(0.000000,512.000000) scale(0.100000,-0.100000)"
fill="#000000" stroke="none">
<path d="M3890 2560 l0 -2560 458 2 457 3 0 2558 0 2557 -457 0 -458 0 0
-2560z"/>
<path d="M2109 4256 c0 -15 0 -4217 0 -4238 1 -17 30 -18 456 -18 357 0 455 3
456 13 1 16 1 4183 0 4223 l-1 32 -455 0 c-329 0 -455 -4 -456 -12z"/>
<path d="M329 3410 c-1 -3 -2 -771 -3 -1707 l-1 -1703 457 0 458 0 0 1708 0
1707 -455 0 c-250 0 -456 -2 -456 -5z"/>
</g>
</svg>
