<svg xmlns="http://www.w3.org/2000/svg" width="202" height="202" viewBox="0 0 202 202"><path fill="#F1F1F1" d="M201 101c0 55.2-44.8 100-100 100S1 156.2 1 101 45.8 1 101 1s100 44.8 100 100z"/><path fill="#E6E5E5" d="M167.1 122.4v33.8H201c0-18.6-15.1-33.8-33.9-33.8z"/><path fill="#F77B55" d="M167.1 156.3v-33.8c-18.7 0-33.8 15.1-33.8 33.8 0 18.7 15.2 33.8 33.8 33.8 9.4 0 17.8-3.8 23.9-9.9l-23.9-23.9z"/><path fill="#353F49" d="M167.1 156.3l23.9 23.9c6.1-6.1 9.9-14.6 9.9-23.9h-33.8z"/><circle fill="#353F49" cx="17.8" cy="53" r="15.4"/><circle fill="#F77B55" cx="33.3" cy="145.1" r="5.4"/><circle fill="#D9D8D7" cx="177.9" cy="77.6" r="10.8"/><path fill="#474F59" d="M53 74.4h96v96H53z"/><path fill="#232E38" d="M62.9 83.9h33.5v11.8H62.9z"/><path fill="#656A73" d="M64.6 85.7h30V94h-30z"/><path d="M83.7 85.7h1.8V94h-1.8zm-9.9 0h1.8V94h-1.8z" fill="#474F59"/><path fill="#232E38" d="M106.3 83.9h11.8v11.8h-11.8zm21.6 0h11.8v11.8h-11.8zm-65 21.7h11.8v11.8H62.9zm21.7 0h11.8v11.8H84.6zm21.7 0h11.8v11.8h-11.8zm21.6 0h11.8v11.8h-11.8zm-65 21.7h11.8v11.8H62.9zm21.7 0h11.8v11.8H84.6zm21.7 0h11.8v11.8h-11.8zM62.9 149h11.8v11.8H62.9zm21.7 0h11.8v11.8H84.6zm21.7 0h11.8v11.8h-11.8z"/><path fill="#656A73" d="M127.9 127.3h11.8v33.5h-11.8z"/><path fill="#353F49" d="M53 31.7h96v42.7H53z"/><path fill="#76D0DE" d="M59.8 38.5h82.3v29.1H59.8z"/><path fill="#ADECF7" d="M63.4 42h75.2v22H63.4z"/><path fill="#D9D8D7" d="M53 73.2h96v2.4H53z"/></svg>