<?xml version="1.0" encoding="utf-8"?>
<!-- Generator: Adobe Illustrator 18.1.1, SVG Export Plug-In . SVG Version: 6.00 Build 0)  -->
<svg version="1.1" id="Layer_1" xmlns="http://www.w3.org/2000/svg" xmlns:xlink="http://www.w3.org/1999/xlink" x="0px" y="0px"
	 width="202px" height="202px" viewBox="0 0 202 202" enable-background="new 0 0 202 202" xml:space="preserve">
<g>
	<path fill="#F1F1F1" d="M201,101c0,55.2-44.8,100-100,100C45.8,201,1,156.2,1,101S45.8,1,101,1C156.2,1,201,45.8,201,101z"/>
	<g>
		<g>
			<g>
				<path fill="#E6E5E5" d="M167.1,122.4v33.8H201C201,137.6,185.9,122.4,167.1,122.4z"/>
				<path fill="#F77B55" d="M167.1,156.3v-33.8c-18.7,0-33.8,15.1-33.8,33.8c0,18.7,15.2,33.8,33.8,33.8c9.4,0,17.8-3.8,23.9-9.9
					L167.1,156.3z"/>
				<path fill="#353F49" d="M167.1,156.3l23.9,23.9c6.1-6.1,9.9-14.6,9.9-23.9H167.1z"/>
			</g>
			<circle fill="#353F49" cx="17.8" cy="53" r="15.4"/>
			<circle fill="#F77B55" cx="33.3" cy="145.1" r="5.4"/>
			<circle fill="#D9D8D7" cx="177.9" cy="77.6" r="10.8"/>
		</g>
		<g>
			<rect x="53" y="74.4" fill="#474F59" width="96" height="96"/>
			<g>
				<g>
					<g>
						<rect x="62.9" y="83.9" fill="#232E38" width="33.5" height="11.8"/>
						<rect x="64.6" y="85.7" fill="#656A73" width="30" height="8.3"/>
						<g>
							<rect x="83.7" y="85.7" fill="#474F59" width="1.8" height="8.3"/>
							<rect x="73.8" y="85.7" fill="#474F59" width="1.8" height="8.3"/>
						</g>
					</g>
					<rect x="106.3" y="83.9" fill="#232E38" width="11.8" height="11.8"/>
					<rect x="127.9" y="83.9" fill="#232E38" width="11.8" height="11.8"/>
					<rect x="62.9" y="105.6" fill="#232E38" width="11.8" height="11.8"/>
					<rect x="84.6" y="105.6" fill="#232E38" width="11.8" height="11.8"/>
					<rect x="106.3" y="105.6" fill="#232E38" width="11.8" height="11.8"/>
					<rect x="127.9" y="105.6" fill="#232E38" width="11.8" height="11.8"/>
					<rect x="62.9" y="127.3" fill="#232E38" width="11.8" height="11.8"/>
					<rect x="84.6" y="127.3" fill="#232E38" width="11.8" height="11.8"/>
					<rect x="106.3" y="127.3" fill="#232E38" width="11.8" height="11.8"/>
					<rect x="62.9" y="149" fill="#232E38" width="11.8" height="11.8"/>
					<rect x="84.6" y="149" fill="#232E38" width="11.8" height="11.8"/>
					<rect x="106.3" y="149" fill="#232E38" width="11.8" height="11.8"/>
					<rect x="127.9" y="127.3" fill="#656A73" width="11.8" height="33.5"/>
				</g>
			</g>
			<rect x="53" y="31.7" fill="#353F49" width="96" height="42.7"/>
			<rect x="59.8" y="38.5" fill="#76D0DE" width="82.3" height="29.1"/>
			<rect x="63.4" y="42" fill="#ADECF7" width="75.2" height="22"/>
			<rect x="53" y="73.2" fill="#D9D8D7" width="96" height="2.4"/>
		</g>
	</g>
</g>
</svg>
