<svg xmlns="http://www.w3.org/2000/svg" width="200" height="200" viewBox="0 0 200 200"><path fill="#F1F1F1" d="M200 100c0 55.2-44.8 100-100 100S0 155.2 0 100 44.8 0 100 0s100 44.8 100 100z"/><circle fill="#FFD160" cx="16.8" cy="52" r="15.4"/><circle fill="#5D6D7E" cx="32.3" cy="144.1" r="5.4"/><circle fill="#AAB5BD" cx="176.9" cy="76.6" r="10.8"/><circle fill="#353F49" cx="176.3" cy="158.1" r="15.9"/><path fill="#F6F8FB" d="M112.6 90.9C132.8 75.3 141 61.5 141 36.3V33H58.5v3.3c0 25.1 8.2 38.9 28.4 54.6 4.1 3.2 8.4 5.2 8.4 9.3 0 4-4.3 6-8.4 9.2-20.2 15.7-28.4 29.4-28.4 54.6v3.3H141V164c0-25.2-8.2-38.9-28.4-54.6-4.1-3.2-8.4-5.2-8.4-9.2 0-4.1 4.3-6.1 8.4-9.3z"/><path fill="#FFC550" d="M99.7 141.4c-10.4 5.1-22 8.4-34.3 9.5-.5 4-.7 8.4-.7 13h69.9c0-4.7-.2-9-.7-13-12.2-1-23.8-4.4-34.2-9.5z"/><path fill="#FFD160" d="M99.7 74.1c-9.2 0-18.1-.7-26.4-1.9C77 77.7 82 82.9 88.8 88.3l1.5 1.2c3.6 2.7 8.1 5.5 8.1 10.7 0 .9.6 1.3 1.2 1.4.6 0 1.3-.5 1.3-1.4 0-5.2 4.5-8 8.1-10.7l1.5-1.2c6.9-5.5 11.9-10.7 15.5-16.1-8.2 1.2-17 1.9-26.3 1.9zM101.4 110.8c0 1.9-1.5 3.4-3.4 3.4s-3.4-1.5-3.4-3.4 1.5-3.4 3.4-3.4 3.4 1.5 3.4 3.4z"/><path fill="#F7B64D" d="M98 113.7c-1.6 0-2.9-1.3-2.9-2.9 0-1.6 1.3-2.9 2.9-2.9 1.6 0 2.9 1.3 2.9 2.9-.1 1.6-1.3 2.9-2.9 2.9zm0-5.5c-1.4 0-2.6 1.2-2.6 2.6 0 1.4 1.2 2.6 2.6 2.6 1.4 0 2.6-1.2 2.6-2.6 0-1.4-1.2-2.6-2.6-2.6z"/><path fill="#FFD160" d="M101.8 123.4c0 2.2-1.8 3.9-3.9 3.9-2.2 0-3.9-1.8-3.9-3.9 0-2.2 1.8-3.9 3.9-3.9 2.1 0 3.9 1.7 3.9 3.9z"/><path fill="#F7B64D" d="M97.8 126.7c-1.8 0-3.3-1.5-3.3-3.3 0-1.8 1.5-3.3 3.3-3.3 1.8 0 3.3 1.5 3.3 3.3 0 1.8-1.4 3.3-3.3 3.3zm0-6.3c-1.6 0-3 1.3-3 3 0 1.6 1.3 3 3 3 1.6 0 3-1.3 3-3 0-1.6-1.3-3-3-3z"/><circle fill="#FFD160" cx="107.2" cy="128.3" r="1.7"/><path fill="#F7B64D" d="M107.2 129.7c-.8 0-1.4-.6-1.4-1.4 0-.8.6-1.4 1.4-1.4.8 0 1.4.6 1.4 1.4.1.8-.6 1.4-1.4 1.4zm0-2.7c-.7 0-1.3.6-1.3 1.3 0 .7.6 1.3 1.3 1.3.7 0 1.3-.6 1.3-1.3 0-.7-.5-1.3-1.3-1.3z"/><circle fill="#FFD160" cx="104.2" cy="117.4" r="2.1"/><path fill="#F7B64D" d="M104.2 119.2c-.9 0-1.7-.8-1.7-1.7 0-1 .8-1.7 1.7-1.7 1 0 1.7.8 1.7 1.7.1.9-.7 1.7-1.7 1.7zm0-3.3c-.9 0-1.6.7-1.6 1.6 0 .9.7 1.6 1.6 1.6.9 0 1.6-.7 1.6-1.6 0-.9-.7-1.6-1.6-1.6z"/><g><path fill="#FFD160" d="M93.1 131.1c0 1.6-1.3 2.8-2.8 2.8-1.6 0-2.8-1.3-2.8-2.8 0-1.6 1.3-2.8 2.8-2.8 1.5 0 2.8 1.3 2.8 2.8z"/><path fill="#F7B64D" d="M90.3 133.5c-1.3 0-2.4-1.1-2.4-2.4 0-1.3 1.1-2.4 2.4-2.4 1.3 0 2.4 1.1 2.4 2.4 0 1.3-1.1 2.4-2.4 2.4zm0-4.5c-1.2 0-2.1 1-2.1 2.2 0 1.2 1 2.2 2.1 2.2 1.2 0 2.2-1 2.2-2.2-.1-1.3-1-2.2-2.2-2.2z"/></g><g><circle fill="#FFD160" cx="96.2" cy="136.9" r="1.1"/><path fill="#F7B64D" d="M96.2 137.8c-.5 0-.9-.4-.9-.9s.4-.9.9-.9.9.4.9.9-.4.9-.9.9zm0-1.7c-.4 0-.8.4-.8.8s.4.8.8.8.8-.4.8-.8-.4-.8-.8-.8z"/></g><g><circle fill="#FFD160" cx="100.8" cy="133.6" r="1.4"/><path fill="#F7B64D" d="M100.8 134.7c-.6 0-1.1-.5-1.1-1.1 0-.6.5-1.1 1.1-1.1.6 0 1.1.5 1.1 1.1.1.6-.4 1.1-1.1 1.1zm0-2.2c-.6 0-1 .5-1 1 0 .6.5 1 1 1 .6 0 1-.5 1-1 .1-.5-.4-1-1-1z"/></g><g><path fill="#FFD160" d="M109 137.8c0 1.4-1.1 2.6-2.6 2.6-1.4 0-2.6-1.1-2.6-2.6 0-1.4 1.1-2.6 2.6-2.6 1.4.1 2.6 1.2 2.6 2.6z"/><path fill="#F7B64D" d="M106.4 140c-1.2 0-2.1-1-2.1-2.1 0-1.2 1-2.1 2.1-2.1 1.2 0 2.1 1 2.1 2.1s-.9 2.1-2.1 2.1zm0-4.1c-1.1 0-1.9.9-1.9 1.9 0 1.1.9 1.9 1.9 1.9 1.1 0 1.9-.9 1.9-1.9 0-1-.8-1.9-1.9-1.9z"/></g><path fill="#5D6D7E" d="M64.8 36.3c0 .7.3 1.4.8 2 .6.6 1.3.8 2 .8h64.3c.7 0 1.4-.3 2-.8.5-.6.8-1.3.8-2V33H64.8v3.3zM57.5 33h84.4c1.2 0 2.4-.5 3.3-1.4.9-.9 1.4-2.1 1.4-3.3 0-1.2-.4-2.4-1.4-3.3-.9-.9-2.1-1.4-3.3-1.4H57.5c-1.2 0-2.4.5-3.3 1.4-.9.9-1.4 2.1-1.4 3.3 0 1.2.5 2.4 1.4 3.3.9 1 2.1 1.4 3.3 1.4zM141.9 167.3H57.5c-1.2 0-2.4.4-3.3 1.4-.9.9-1.4 2.1-1.4 3.3 0 1.2.5 2.4 1.4 3.3.9.9 2.1 1.4 3.3 1.4h84.4c1.2 0 2.4-.5 3.3-1.4.9-.9 1.4-2.1 1.4-3.3 0-1.2-.4-2.4-1.4-3.3-.9-1-2.1-1.4-3.3-1.4z"/><path fill="#1A1B1C" d="M64.8 33h69.9v3.3H64.8z"/><path fill="#E6EAEE" d="M112.6 90.9C132.8 75.3 141 61.5 141 36.3V33H58.5v3.3c0 25.1 8.2 38.9 28.4 54.6 4.1 3.2 8.4 5.2 8.4 9.3 0 4-4.3 6-8.4 9.2-20.2 15.7-28.4 29.4-28.4 54.6v3.3H141V164c0-25.2-8.2-38.9-28.4-54.6-4.1-3.2-8.4-5.2-8.4-9.2 0-4.1 4.3-6.1 8.4-9.3zm-11.6 9.3c0 5.1 4.5 8 8.1 10.7.5.4 1 .7 1.5 1.2 19.9 15.7 24.1 29.6 24.1 52H64.8c0-22.3 4.2-36.3 24.1-52l1.5-1.2c3.6-2.7 8.1-5.5 8.1-10.7 0-5.2-4.5-8-8.1-10.7l-1.5-1.2C69 72.5 64.8 58.7 64.8 36.3h69.9c0 22.4-4.2 36.2-24.1 52l-1.5 1.2c-3.6 2.7-8.1 5.5-8.1 10.7z"/><path fill="#AAB5BD" d="M64.8 33h69.9v3.3H64.8z"/></svg>