<svg xmlns="http://www.w3.org/2000/svg" width="108" height="98" viewBox="0 0 108 98"><path fill="#FFF" d="M106.9 32.8c-.6-8.7-6-15.7-14.8-19.1-7.8-3.1-16.7-2.8-23.6.3C65.3 6.4 57.8 1 49.1 1H1v3.6C1 12.4 5.8 19.1 12.5 22c.8 7 5.4 12.9 11.7 15.4 1.1 9.4 9 16.6 18.6 16.6h.3v15.6H22.9v3.6C22.9 86.4 33.5 97 46.6 97h3.6V76.9H69c11.6 0 21-9.4 21-21.1v-9.4c0-5.4 4.3-9.7 9.7-9.7h7.3l-.1-3.9zM43.1 85.7v3.9c-6.3-1.4-11.2-6.3-12.6-12.6h12.6v8.7zm39.7-39.2V56c0 7.7-6.2 13.9-13.9 13.9H50.1V47.1h-7.5c-5.2 0-9.6-3.4-11.1-8.1h18.6v-7.1H30.8c-5.2-.1-9.5-3.5-11-8.1h30.3v-7.1H19.7c-5.2 0-9.7-3.4-11.2-8.2H49c7.7 0 13.9 6.2 13.9 13.9v24.9H70V22.4c0-.2-.1-.5-.1-.7 5.4-3 12.9-3.6 19.5-1 3 1.2 7.7 3.9 9.5 9.3-8.9 0-16.1 7.4-16.1 16.5z"/></svg>