<svg xmlns="http://www.w3.org/2000/svg" width="302" height="274" viewBox="0 0 302 274"><path fill="#4CAF50" d="M300.7 91.2c-1.7-24.6-17-44.5-41.9-54.1-22.1-8.8-47.3-7.9-66.8.8-9-21.5-30.2-36.7-54.9-36.7H1v10.2c0 22.1 13.6 41.1 32.5 49.3 2.3 19.8 15.3 36.5 33.1 43.6 3.1 26.6 25.5 47 52.6 47h.8v44.2H63v10.2c0 37.1 30 67.1 67.1 67.1h10.2v-56.9h53.2c32.8 0 59.4-26.6 59.4-59.8v-26.6c0-15.3 12.2-27.5 27.5-27.5H301l-.3-10.8zM120.2 240.8v11c-17.8-4-31.7-17.8-35.7-35.7h35.7v24.7zm112.3-110.7v26.6c0 21.8-17.5 39.4-39.3 39.4H140v-64.3h-21.2c-14.7 0-27.2-9.6-31.4-22.9H140V88.7H85.3c-14.7-.3-26.9-9.9-31.1-22.9H140V45.6H53.9c-14.7 0-27.5-9.6-31.7-23.2h114.6c21.8 0 39.3 17.6 39.3 39.4v70.5h20.1V61.8c0-.6-.3-1.4-.3-2 15.3-8.5 36.5-10.2 55.2-2.8 8.5 3.4 21.8 11 26.9 26.3-25.1 0-45.5 21-45.5 46.8z"/></svg>