<svg version="1" xmlns="http://www.w3.org/2000/svg" width="156" height="28" viewBox="0 0 156 28"><g fill="#FFF"><path d="M33.8 22.1V11.4c0-1.6-.4-3-2.4-3-.8 0-1.8.5-2.2 1-.5.8-.6 1.7-.6 2.3v10.4h-2.5V9.9c0-1.1-.1-2.1-.2-3.2h2.6v1.9h.1c.7-1.7 2-2.2 3.8-2.2 1.4 0 3 .6 3.6 2 .9-1.7 2.2-2 3.6-2 1.6 0 4.2.4 4.2 4v11.8h-2.5V11.4c0-1.6-.4-3-2.4-3-.9 0-1.2 0-1.9.6s-.8 2.1-.8 2.7v10.4h-2.4zM47 14.6c0-4.5.5-8.3 5.8-8.3s5.8 3.7 5.8 8.3c0 6.8-2.6 7.8-5.8 7.8-3.2 0-5.8-.9-5.8-7.8zm9.1-1c0-4.2-1.3-5.2-3.2-5.2-1.9 0-3.2.9-3.2 5.2 0 5 .6 6.8 3.2 6.8s3.2-1.8 3.2-6.8zM70.2 22.1V11.4c0-1.7-.6-3-2.7-3-2.7 0-3.1 2.5-3.1 4.6v9.2h-2.5V9.9c0-1.1-.1-2.1-.2-3.2h2.6v2h.1c1-1.7 2.1-2.3 4.1-2.3 3.3 0 4.1 2 4.1 5.1v10.7h-2.4zM78.7 15.2c0 4.3 1.2 5.2 3.1 5.2 1.7 0 2.6-1.4 2.7-2.9h2.7c0 3.4-2.1 5-5.3 5-3.2 0-5.8-1-5.8-7.8 0-4.5.5-8.3 5.8-8.3 4.4 0 5.5 2.4 5.5 7.5v1.3h-8.7zm6-1.9c0-4.5-1.2-5.1-3.1-5.1-1.6 0-2.9.8-2.9 5.1h6zM95.3 19.3L99 6.7h2.7l-7 21.3h-2.6l1.7-5.9-5.1-15.4h2.9l3.7 12.6zM106.1 22.1h-2.5V0h2.5v8.2h.1c.8-1.2 1.9-1.9 3.4-1.9 4.9 0 5.1 4.4 5.1 8.3 0 6.8-2.5 7.8-4.9 7.8-1.6 0-2.7-.7-3.5-2.1h-.1v1.8zm2.8-1.7c3.1 0 3.1-3.4 3.1-5.7 0-4.1-.4-6.3-3-6.3-2.8 0-2.9 3.3-2.9 5.4 0 2.3-.3 6.6 2.8 6.6zM125.7 19.9c-.8 1.8-2 2.5-3.9 2.5-3.2 0-4.2-2.1-4.2-5.1 0-4.7 4.6-4.9 8-4.8.1-2.1.1-4.3-2.6-4.3-1.7 0-2.6 1.1-2.4 2.8H118c.1-3.5 1.9-4.7 5.2-4.7 3.9 0 5 2.1 5 4.7v7.5c0 1.2.1 2.5.3 3.7h-2.7v-2.3zm-5.6-2.4c0 1.5.7 2.9 2.4 2.9 1.5 0 3.4-1 3.2-5.9-2.4 0-5.6-.2-5.6 3zM136.8 22.4c-3.3 0-5.4-1.5-5.3-5h2.8c0 .9 0 3 2.6 3 1.5 0 2.6-.8 2.6-2.4 0-2.8-7.7-2.8-7.7-7.5 0-1.6 1-4.2 5.3-4.2 2.7 0 5.1 1.3 4.9 4.4h-2.8c0-1.6-.8-2.5-2.4-2.5-1.3 0-2.4.7-2.4 2.1 0 2.7 7.7 2.7 7.7 7.4 0 3.4-2.3 4.7-5.3 4.7zM147.4 15.2c0 4.3 1.2 5.2 3.1 5.2 1.7 0 2.6-1.4 2.7-2.9h2.7c0 3.4-2.1 5-5.3 5-3.2 0-5.8-1-5.8-7.8 0-4.5.5-8.3 5.8-8.3 4.4 0 5.5 2.4 5.5 7.5v1.3h-8.7zm6-1.9c0-4.5-1.2-5.1-3.1-5.1-1.6 0-2.9.8-2.9 5.1h6z"/></g><g fill="#FFF"><path d="M16.4 1h4.2v24h-4.2zM8.2 5h4.2v20H8.2zM0 9h4.2v16H0z"/></g></svg>