<?xml version="1.0" encoding="utf-8"?>
<!-- Generator: Adobe Illustrator 18.1.1, SVG Export Plug-In . SVG Version: 6.00 Build 0)  -->
<svg version="1.0" id="Layer_1" xmlns="http://www.w3.org/2000/svg" xmlns:xlink="http://www.w3.org/1999/xlink" x="0px" y="0px"
	 width="160px" height="30px" viewBox="0 0 160 30" enable-background="new 0 0 160 30" xml:space="preserve">
<g>
	<g>
		<path fill="#FFFFFF" d="M21.5,23.5c0,1.4-1,2.6-2.3,2.6l0,0c-1.3,0-2.3-1.2-2.3-2.6V3.6c0-1.4,1-2.6,2.3-2.6l0,0
			c1.3,0,2.3,1.2,2.3,2.6V23.5z"/>
		<path fill="#FFFFFF" d="M13.1,23.5c0,1.4-1,2.6-2.3,2.6l0,0c-1.3,0-2.3-1.2-2.3-2.6V7.8c0-1.4,1-2.6,2.3-2.6l0,0
			c1.3,0,2.3,1.2,2.3,2.6V23.5z"/>
		<path fill="#FFFFFF" d="M4.7,23.5c0,1.4-1,2.6-2.3,2.6l0,0C1,26.2,0,25,0,23.5V12c0-1.4,1-2.6,2.3-2.6l0,0c1.3,0,2.3,1.2,2.3,2.6
			V23.5z"/>
	</g>
	<path fill="#FFFFFF" d="M43.6,23.1c-0.6,0-1.2-0.7-1.2-1.5V12c0-1.9-0.7-3.2-2.2-3.2c-1.3,0-2.6,1.2-3.2,2.4v10.5
		c0,0.8-0.5,1.5-1.2,1.5c-0.6,0-1.2-0.7-1.2-1.5V12c0-1.9-0.6-3.2-2.2-3.2c-1.2,0-2.5,1.2-3.1,2.4v10.5c0,0.8-0.5,1.5-1.2,1.5
		c-0.6,0-1.2-0.7-1.2-1.5V7.7c0-0.8,0.5-1.5,1.2-1.5c0.6,0,1.1,0.7,1.1,1.5v1.1c0.5-1,2.2-2.7,4.1-2.7c1.9,0,3,1.3,3.4,3
		c0.7-1.5,2.4-3,4.3-3c2.3,0,3.6,1.6,3.6,5v10.6C44.8,22.5,44.2,23.1,43.6,23.1z"/>
	<path fill="#FFFFFF" d="M54.3,23.3c-3.9,0-6.4-3.9-6.4-8.7s2.4-8.6,6.4-8.6c4,0,6.4,3.9,6.4,8.6S58.3,23.3,54.3,23.3z M54.3,8.8
		c-2.5,0-4,2.8-4,5.9c0,3.2,1.4,6,4,6c2.5,0,4-2.8,4-6C58.3,11.6,56.9,8.8,54.3,8.8z"/>
	<path fill="#FFFFFF" d="M73.6,23.1c-0.6,0-1.2-0.7-1.2-1.5v-9.3c0-2.7-1.1-3.6-2.7-3.6c-1.5,0-2.8,1.2-3.5,2.4v10.5
		c0,0.8-0.5,1.5-1.2,1.5c-0.6,0-1.2-0.7-1.2-1.5V7.7c0-0.8,0.5-1.5,1.2-1.5c0.6,0,1.1,0.7,1.1,1.5v1.1c0.9-1.3,2.5-2.7,4.5-2.7
		c2.7,0,4.1,1.8,4.1,5.3v10.3C74.8,22.5,74.3,23.1,73.6,23.1z"/>
	<path fill="#FFFFFF" d="M89.2,15.7h-8.8c0.2,2.8,1.8,5.2,4.3,5.2c1.1,0,2.2-0.5,3.1-1.4c0.2-0.1,0.3-0.2,0.5-0.2
		c0.4,0,0.9,0.5,0.9,1.2c0,1.8-3.2,2.8-4.8,2.8c-3.8,0-6.5-3.5-6.5-8.7c0-4.8,2.6-8.6,6.3-8.6c3.1,0,5.2,2.5,5.9,6.2
		c0.1,0.5,0.2,1.3,0.2,1.9C90.4,15,89.9,15.7,89.2,15.7z M84.3,8.5c-2.5,0-3.7,2.7-3.8,5h7.7C88.1,11.3,87,8.5,84.3,8.5z"/>
	<path fill="#FFFFFF" d="M113,23.3c-1.7,0-3.2-1.1-4.2-2.8v1.1c0,0.8-0.5,1.5-1.2,1.5c-0.6,0-1.2-0.7-1.2-1.5V1.5
		c0-0.8,0.5-1.5,1.2-1.5c0.6,0,1.1,0.7,1.1,1.5v7.4c1-1.8,2.5-2.8,4.2-2.8c3.3,0,5.6,3.4,5.6,8.7C118.6,20.1,116.3,23.3,113,23.3z
		 M112.3,8.8c-1.4,0-2.9,1.1-3.5,2.5v7.1c0.6,1.3,2.1,2.4,3.5,2.4c2.4,0,3.8-2.5,3.8-5.9C116.2,11.3,114.7,8.8,112.3,8.8z"/>
	<path fill="#FFFFFF" d="M130.8,23.1L130.8,23.1c-0.5,0-1.2-0.5-1.2-1.5v-0.5c-1,1.5-2.5,2.2-4.2,2.2c-2.1,0-4.4-1.8-4.4-5.5
		c0-3.7,2.3-5.4,4.4-5.4c1.7,0,3.2,0.7,4.2,2.2v-2.8c0-2.1-1.3-3.3-3.1-3.3c-1.2,0-2.2,0.5-3.2,1.4c-0.2,0.2-0.4,0.3-0.6,0.3
		c-0.5,0-1-0.5-1-1.2c0-0.3,0.1-0.5,0.2-0.8c1.2-1.6,3.1-2.3,4.8-2.3c2.7,0,5.1,1.5,5.1,5.7v9.9C132,22.5,131.4,23.1,130.8,23.1z
		 M129.6,16.5c-0.7-1.3-2-1.9-3.3-1.9c-1.7,0-2.9,1.4-2.9,3.3c0,1.9,1.2,3.2,2.9,3.2c1.3,0,2.6-0.6,3.3-1.9V16.5z"/>
	<path fill="#FFFFFF" d="M140.1,23.3c-1.7,0-3.6-0.6-4.8-2.1c-0.2-0.2-0.3-0.5-0.3-0.8c0-0.7,0.5-1.3,1-1.3c0.2,0,0.4,0.1,0.6,0.2
		c0.9,0.9,2.2,1.6,3.6,1.6c1.8,0,2.7-1.1,2.7-2.6c0-3.6-7.7-1.3-7.7-7.5c0-2.6,1.7-4.8,4.8-4.8c1.8,0,3.4,0.7,4.4,2
		c0.2,0.2,0.2,0.5,0.2,0.8c0,0.7-0.4,1.2-0.9,1.2c-0.2,0-0.4-0.1-0.5-0.2c-0.8-0.7-1.9-1.3-3.1-1.3c-1.6,0-2.6,1-2.6,2.3
		c0,3.3,7.7,1,7.7,7.5C145.2,21.1,143.4,23.3,140.1,23.3z"/>
	<path fill="#FFFFFF" d="M158.8,15.7H150c0.2,2.8,1.8,5.2,4.3,5.2c1.1,0,2.2-0.5,3.1-1.4c0.2-0.1,0.3-0.2,0.5-0.2
		c0.4,0,0.9,0.5,0.9,1.2c0,1.8-3.2,2.8-4.8,2.8c-3.8,0-6.5-3.5-6.5-8.7c0-4.8,2.6-8.6,6.3-8.6c3.1,0,5.2,2.5,5.9,6.2
		c0.1,0.5,0.2,1.3,0.2,1.9C160,15,159.5,15.7,158.8,15.7z M153.9,8.5c-2.5,0-3.7,2.7-3.8,5h7.7C157.7,11.3,156.5,8.5,153.9,8.5z"/>
	<path fill="#FFFFFF" d="M96,25.3l0.7-2.2L92,8.3C92,8.1,92,7.9,92,7.8c0-0.8,0.5-1.5,1.2-1.5c0.4,0,0.9,0.3,1.1,1L98,19.4l3.7-12.2
		c0.2-0.6,0.6-1,1.1-1c0.7,0,1.2,0.7,1.2,1.5c0,0.2,0,0.4-0.1,0.5l-5.7,17.8l-0.9,2.9c-0.2,0.6-0.6,0.9-1.1,0.9
		c-0.7,0-1.3-0.6-1.3-1.4c0-0.2,0-0.4,0.1-0.5L96,25.3z"/>
</g>
</svg>
