<svg xmlns="http://www.w3.org/2000/svg" width="400" height="98" viewBox="0 0 400 98"><g fill="#4CAF50"><path d="M131.4 52.6c2 .2 3.7.6 5 1.3s2.2 1.5 2.9 2.4 1.1 1.9 1.4 3c.2 1.1.4 2.1.4 3.1v1c0 3.2-1.2 5.7-3.5 7.5s-5.9 2.7-10.7 2.7h-7.1c-2.7 0-5.4-.1-8.1-.1l1.2-5.9c2.5 0 4.9.1 7.5.1h6.9c2.6 0 4.4-.3 5.4-.9s1.5-1.7 1.5-3.5c0-.5-.1-1.1-.2-1.5-.1-.5-.3-.9-.7-1.3-.3-.4-.8-.7-1.5-.9-.6-.2-1.5-.4-2.6-.5l-8.2-.7c-1.7-.1-3.1-.5-4.3-1.1-1.2-.6-2.1-1.3-2.9-2.1-.7-.8-1.3-1.8-1.6-2.8-.3-1-.5-2.1-.5-3.2V48c0-3.1 1.1-5.5 3.2-7.2s5.6-2.6 10.5-2.6h6.8c2.4 0 5 0 8 .1l-1.2 5.9c-1.9 0-3.6-.1-5-.1h-9.2c-2.3 0-3.9.3-4.8.8-.9.6-1.4 1.6-1.4 3 0 .6.1 1.1.2 1.6s.3.8.7 1.2c.3.3.8.6 1.5.8s1.5.4 2.6.5l7.8.6zM162.1 37.1c2.9 0 5.4.3 7.4.8s3.7 1.4 5 2.8c1.3 1.3 2.2 3.1 2.8 5.3s.9 5 .9 8.3v3.1c0 3-.2 5.6-.7 7.7-.5 2.2-1.3 3.9-2.5 5.3s-2.8 2.4-4.9 3.1c-2.1.7-4.8 1-8 1-2.1 0-3.9-.3-5.4-.8s-2.7-1.2-3.6-2v13.6h-7.2V53.9c0-3.2.3-5.9.9-8.1.6-2.2 1.6-3.9 2.9-5.2s3-2.2 5-2.8c1.9-.4 4.4-.7 7.4-.7zm-.2 31.5c1.9 0 3.4-.1 4.6-.4 1.2-.3 2.1-.8 2.7-1.6.7-.8 1.1-2 1.3-3.4.2-1.5.3-3.4.3-5.8v-3.1c0-2.5-.1-4.5-.3-6s-.7-2.6-1.3-3.4c-.7-.8-1.6-1.3-2.7-1.6-1.2-.2-2.7-.4-4.5-.4s-3.3.1-4.5.4c-1.2.2-2.1.8-2.8 1.5-.7.8-1.1 1.9-1.4 3.3-.3 1.4-.4 3.3-.4 5.7v4.8c0 2 .1 3.6.4 4.9.3 1.3.8 2.3 1.4 3 .7.7 1.6 1.3 2.8 1.5 1.3.4 2.7.6 4.4.6zM189.8 58.4c0 1.9.1 3.4.3 4.6s.6 2.1 1.2 2.8c.6.7 1.5 1.1 2.6 1.4 1.1.2 2.5.4 4.4.4h5c2 0 4.6 0 7.9-.1l-1.2 5.9c-1.4 0-2.6.1-3.6.1h-8.1c-3.2 0-5.8-.4-7.9-1.1-2-.7-3.6-1.8-4.8-3.2s-1.9-3.1-2.4-5c-.4-2-.6-4.2-.6-6.6v-3.8c0-2.6.2-4.9.6-7 .4-2.1 1.2-3.8 2.4-5.2s2.8-2.5 4.8-3.3c2.1-.8 4.8-1.2 8.1-1.2 3 0 5.5.4 7.5 1.1 1.9.7 3.5 1.7 4.6 2.9s1.9 2.6 2.3 4.1c.4 1.6.6 3.2.6 4.9v1c0 1.6-.1 2.9-.3 3.9s-.5 1.7-.9 2.2-.9.9-1.5 1c-.6.2-1.4.2-2.2.2h-18.8zm8.5-15.7c-1.8 0-3.3.1-4.4.4-1.1.3-1.9.8-2.6 1.5-.6.7-1 1.8-1.2 3.1s-.3 3-.3 5.1h17v-2.3c0-1.5-.1-2.8-.4-3.8-.3-1-.7-1.8-1.4-2.4-.7-.6-1.5-1-2.6-1.3-1-.1-2.3-.3-4.1-.3zM218.8 73.3V48.5c0-4.1 1.3-7 3.8-8.8s6.5-2.7 11.8-2.7c5.4 0 9.3.9 11.8 2.7s3.8 4.7 3.8 8.8v24.8h-7.2V49.9c0-1.1-.1-2.1-.2-3-.1-.9-.5-1.6-1-2.2-.5-.6-1.4-1-2.5-1.3s-2.7-.4-4.7-.4-3.6.1-4.7.4c-1.1.3-2 .7-2.5 1.3s-.9 1.3-1 2.2-.2 1.9-.2 3v23.4h-7.2zM271.2 73.3c-3 0-5.5-.3-7.6-.9-2-.6-3.7-1.6-4.9-3-1.2-1.4-2.1-3.1-2.6-5.3s-.8-4.8-.8-7.9v-2.6c0-2.8.2-5.2.7-7.2.5-2.1 1.3-3.8 2.5-5.2s2.8-2.5 4.8-3.2 4.6-1.1 7.7-1.1c2.2 0 4.1.2 5.8.7 1.7.5 3 1.1 3.8 1.9V22.8h7.2v44.7c0 2.1-.5 3.6-1.4 4.5-1 .9-2.8 1.4-5.5 1.4l-9.7-.1zm9.4-5.8V51.6c0-1.8-.1-3.2-.4-4.4-.3-1.1-.7-2-1.4-2.7-.7-.7-1.6-1.1-2.8-1.3-1.2-.2-2.7-.3-4.5-.3-1.9 0-3.4.1-4.6.4s-2.1.8-2.7 1.6-1.1 1.9-1.3 3.3c-.2 1.4-.3 3.2-.3 5.4v2.6c0 2.4.1 4.3.3 5.7.2 1.5.6 2.6 1.3 3.4.6.8 1.5 1.4 2.7 1.6 1.2.3 2.7.4 4.7.4h9v.2z"/><g><path d="M316.4 46.7l-7.1 26.6h-7.4l-10.4-35.2h7.2l7 27.7 7.4-27.7h6.9l7.1 27.8 7.4-27.8h6.7l-10.6 35.2h-7.4l-6.8-26.6zM349.5 58.4c0 1.9.1 3.4.3 4.6.2 1.2.6 2.1 1.2 2.8s1.5 1.1 2.6 1.4c1.1.2 2.5.4 4.4.4h5c2 0 4.6 0 7.9-.1l-1.2 5.9c-1.4 0-2.6.1-3.6.1H358c-3.2 0-5.8-.4-7.9-1.1-2-.7-3.6-1.8-4.8-3.2-1.2-1.4-1.9-3.1-2.4-5-.4-2-.6-4.2-.6-6.6v-3.8c0-2.6.2-4.9.6-7s1.2-3.8 2.4-5.2c1.2-1.4 2.8-2.5 4.8-3.3 2.1-.8 4.8-1.2 8.1-1.2 3 0 5.5.4 7.5 1.1 1.9.7 3.5 1.7 4.6 2.9s1.9 2.6 2.3 4.1c.4 1.6.6 3.2.6 4.9v1c0 1.6-.1 2.9-.3 3.9-.2 1-.5 1.7-.9 2.2s-.9.9-1.5 1c-.6.2-1.4.2-2.2.2h-18.8zm8.4-15.7c-1.8 0-3.3.1-4.4.4-1.1.3-1.9.8-2.6 1.5-.6.7-1 1.8-1.2 3.1s-.3 3-.3 5.1h17v-2.3c0-1.5-.1-2.8-.4-3.8s-.7-1.8-1.4-2.4c-.7-.6-1.5-1-2.6-1.3-1-.1-2.4-.3-4.1-.3zM378.4 22.8h7.2v50.5h-7.2V22.8zM391.8 22.8h7.2v50.5h-7.2V22.8z"/></g><path d="M107.4 32.8c-.6-8.7-6-15.7-14.9-19.1-7.8-3.1-16.8-2.8-23.7.3C65.6 6.4 58 1 49.3 1H1v3.6C1 12.4 5.8 19.1 12.6 22c.8 7 5.4 12.9 11.8 15.4 1.1 9.4 9 16.6 18.7 16.6h.3v15.6H23v3.6C23 86.4 33.7 97 46.8 97h3.6V76.9h18.9c11.7 0 21.1-9.4 21.1-21.1v-9.4c0-5.4 4.3-9.7 9.7-9.7h7.3v-3.9zM43.3 85.7v3.9C36.9 88.2 32 83.3 30.6 77h12.7v8.7zm39.9-39.2V56c0 7.7-6.2 13.9-14 13.9H50.3V47.1h-7.5c-5.2 0-9.6-3.4-11.2-8.1h18.7v-7.1H30.9c-5.2-.1-9.5-3.5-11.1-8.1h30.4v-7.1H19.9c-5.2 0-9.7-3.4-11.3-8.2h40.7c7.7 0 14 6.2 14 13.9v24.9h7.1V22.4c0-.2-.1-.5-.1-.7 5.4-3 13-3.6 19.6-1 3 1.2 7.7 3.9 9.5 9.3-9 0-16.2 7.4-16.2 16.5z"/></g></svg>