<svg version="1" xmlns="http://www.w3.org/2000/svg" width="108" height="98" viewBox="0 0 108 98"><path fill="#00988A" d="M107 32.8c-.7-8.7-6.1-15.7-14.9-19.2-7.8-3.1-16.6-2.8-23.6.3C65.3 6.4 57.9 1 49.1 1H1v3.6C1 12.4 5.8 19.1 12.5 22c.8 7 5.3 12.9 11.7 15.4 1.1 9.4 9 16.6 18.6 16.6h.3v15.6H23.8c-.4 0-.8.4-.8.8v2.8C23 86.4 33.6 97 46.7 97h2.8c.4 0 .8-.4.8-.8V76.9H69c11.6 0 21-9.4 21-21.1v-9.4c0-5.4 4.3-9.7 9.7-9.7h7.3v-3.9zM43.1 85.6v3.9c-6.3-1.4-11.2-6.3-12.6-12.6h12.6v8.7zm39.8-39.2v9.4c0 7.7-6.2 13.9-13.9 13.9H50.3V47h-7.4c-5.2 0-9.6-3.4-11.1-8.1h18.6v-7.1H31.1c-5.1-.1-9.5-3.5-11-8.1h30.3v-7.1H19.8c-5.2 0-9.6-3.4-11.2-8.2h40.5c7.7 0 13.9 6.2 13.9 13.9V47h7.1V22.1c0-.2-.1-.5-.1-.7 5.4-3 12.9-3.6 19.4-1 3 1.2 7.7 3.9 9.5 9.3-8.8.3-16 7.7-16 16.7"/></svg>