<?xml version="1.0" encoding="utf-8"?>
<!-- Generator: Adobe Illustrator 18.1.1, SVG Export Plug-In . SVG Version: 6.00 Build 0)  -->
<svg version="1.0" id="Layer_1" xmlns="http://www.w3.org/2000/svg" xmlns:xlink="http://www.w3.org/1999/xlink" x="0px" y="0px"
	 width="158px" height="47px" viewBox="0 0 158 47" enable-background="new 0 0 158 47" xml:space="preserve">
<g>
	<path fill="#FFFFFF" d="M10,6.2H1.8C1.3,6.2,1,5.9,1,5.5V2.2c0-0.4,0.3-0.8,0.8-0.8h21.9c0.5,0,0.8,0.4,0.8,0.8v3.3
		c0,0.4-0.3,0.8-0.8,0.8h-8.2v22.4c0,0.4-0.4,0.8-0.8,0.8h-3.9c-0.4,0-0.8-0.4-0.8-0.8V6.2H10z"/>
	<path fill="#FFFFFF" d="M28.9,2.2c0-0.4,0.3-0.8,0.8-0.8h12.6c5,0,9.2,3.8,9.2,8.6c0,3.7-2.5,6.7-6.2,8.1L51,28.3
		c0.3,0.5,0,1.1-0.7,1.1h-4.4c-0.4,0-0.6-0.2-0.7-0.4l-5.6-10.6h-5.2v10.2c0,0.4-0.4,0.8-0.8,0.8h-3.9c-0.5,0-0.8-0.4-0.8-0.8
		L28.9,2.2L28.9,2.2z M41.9,14.2c2.2,0,4.2-1.8,4.2-4.1c0-2.1-1.9-3.9-4.2-3.9h-7.4v8L41.9,14.2L41.9,14.2z"/>
	<path fill="#FFFFFF" d="M72,19.9l-4.2-8.8h-0.1l-4.2,8.8l-2.1,4.5l-2.1,4.3c-0.2,0.4-0.6,0.8-1.2,0.8h-3.7c-0.6,0-1-0.5-0.7-1
		l13.1-27C66.9,1.2,67.1,1,67.5,1h0.4c0.4,0,0.6,0.2,0.7,0.4l13,27c0.3,0.5-0.1,1-0.7,1h-3.7c-0.6,0-0.9-0.3-1.2-0.8l-2.1-4.3
		L72,19.9z"/>
	<path fill="#FFFFFF" d="M97.1,1c4.1,0,7,1.3,9.7,3.7c0.4,0.3,0.4,0.8,0.1,1.1l-2.4,2.5c-0.3,0.3-0.7,0.3-1,0
		c-1.7-1.5-3.9-2.3-6.2-2.3c-5.1,0-8.9,4.3-8.9,9.4c0,5,3.8,9.2,9,9.2c2.4,0,4.5-0.9,6.1-2.3c0.3-0.3,0.8-0.3,1,0L107,25
		c0.3,0.3,0.3,0.8-0.1,1.1c-2.7,2.7-6.2,3.9-9.7,3.9c-8,0-14.4-6.4-14.4-14.4C82.6,7.5,89.1,1,97.1,1z"/>
	<path fill="#FFFFFF" d="M111.8,2.4c0-0.5,0.4-0.9,1-0.9h3.7c0.6,0,1,0.4,1,0.9v10.8l10.6-11.4c0.2-0.2,0.4-0.4,0.8-0.4h4.2
		c0.8,0,1.2,0.8,0.7,1.5l-10.9,11.8l11.8,13.4c0.4,0.5,0.1,1.4-0.8,1.4h-4.6c-0.4,0-0.7-0.2-0.8-0.3l-11-12.9v12.2
		c0,0.5-0.5,0.9-1,0.9h-3.7c-0.6,0-1-0.4-1-0.9L111.8,2.4L111.8,2.4z"/>
	<path fill="#FFFFFF" d="M137.7,25.5l1.5-2.5c0.3-0.6,1-0.6,1.5-0.3c0.2,0.1,3.6,2.5,6.4,2.5c2.2,0,3.8-1.4,3.8-3.1
		c0-2-1.8-3.4-5.4-4.8c-3.9-1.5-8-3.9-8-8.6c0-3.6,2.8-7.7,9.5-7.7c4.3,0,7.6,2.1,8.4,2.7c0.4,0.3,0.6,0.9,0.3,1.3l-1.6,2.3
		c-0.3,0.5-1,0.8-1.5,0.5c-0.3-0.2-3.5-2.2-5.9-2.2c-2.4,0-3.7,1.5-3.7,2.8c0,1.9,1.6,3.2,5,4.5c4.1,1.6,8.8,3.9,8.8,9
		c0,4.1-3.7,8-9.7,8c-5.3,0-8.4-2.3-9.3-3.1C137.6,26.4,137.4,26.2,137.7,25.5z"/>
</g>
<g>
	<path fill="#FFFFFF" d="M48,36.2c0-0.1,0.1-0.2,0.2-0.2h0.2c0.1,0,0.2,0.1,0.2,0.2l2.9,7.1h0.1l2.9-7.1c0-0.1,0.1-0.2,0.2-0.2H55
		c0.1,0,0.2,0.1,0.2,0.2l1.7,9.3c0,0.2-0.1,0.3-0.2,0.3h-0.9c-0.1,0-0.2-0.1-0.3-0.2l-1-6.2c0,0,0,0,0,0L52,45.8
		c0,0.1-0.1,0.2-0.2,0.2h-0.2c-0.1,0-0.2-0.1-0.2-0.2l-2.5-6.4c0,0,0,0-0.1,0l-1,6.2c0,0.1-0.1,0.2-0.2,0.2h-0.9
		c-0.2,0-0.3-0.1-0.3-0.3L48,36.2z"/>
	<path fill="#FFFFFF" d="M66.9,36c2.8,0,5,2.2,5,5c0,2.8-2.2,5-5,5c-2.8,0-5-2.2-5-5C61.9,38.2,64.1,36,66.9,36z M66.9,44.6
		c2,0,3.6-1.6,3.6-3.6c0-2-1.6-3.6-3.6-3.6c-2,0-3.6,1.6-3.6,3.6C63.3,43,65,44.6,66.9,44.6z"/>
	<path fill="#FFFFFF" d="M77.8,36.2c0-0.1,0.1-0.2,0.3-0.2h0.3l6,7h0v-6.6c0-0.1,0.1-0.3,0.3-0.3h0.9c0.1,0,0.3,0.1,0.3,0.3v9.3
		c0,0.1-0.1,0.2-0.3,0.2h-0.4l-6-7.2h0v6.8c0,0.1-0.1,0.3-0.3,0.3H78c-0.1,0-0.3-0.1-0.3-0.3V36.2z"/>
	<path fill="#FFFFFF" d="M92.7,36.4c0-0.1,0.1-0.3,0.3-0.3h5.5c0.2,0,0.3,0.1,0.3,0.3v0.8c0,0.1-0.1,0.3-0.3,0.3h-4.4v2.8h3.7
		c0.1,0,0.3,0.1,0.3,0.3v0.8c0,0.2-0.1,0.3-0.3,0.3h-3.7v3h4.4c0.2,0,0.3,0.1,0.3,0.3v0.8c0,0.1-0.1,0.3-0.3,0.3h-5.5
		c-0.2,0-0.3-0.1-0.3-0.3V36.4z"/>
	<path fill="#FFFFFF" d="M106.9,41.1l-3.2-4.6c-0.1-0.2,0-0.4,0.2-0.4h1c0.1,0,0.2,0.1,0.2,0.1l2.5,3.5l2.5-3.5
		c0-0.1,0.1-0.1,0.2-0.1h1c0.2,0,0.3,0.2,0.2,0.4l-3.3,4.6v4.4c0,0.1-0.1,0.3-0.3,0.3h-0.9c-0.2,0-0.3-0.1-0.3-0.3V41.1z"/>
</g>
</svg>
