<svg version="1" xmlns="http://www.w3.org/2000/svg" width="400" height="98" viewBox="0 0 400 98"><g fill="#00988A"><path d="M131.5 52.2c2 .2 3.7.6 5 1.3 1.3.7 2.2 1.5 2.9 2.4.7.9 1.1 1.9 1.4 3 .2 1.1.4 2.1.4 3.1v1c0 3.2-1.2 5.7-3.5 7.5-2.3 1.8-5.9 2.7-10.7 2.7h-7.1c-2.7 0-5.4-.1-8.1-.1L113 67c2.5 0 4.9.1 7.5.1h6.9c2.6 0 4.4-.3 5.4-.9 1-.6 1.5-1.7 1.5-3.5 0-.5-.1-1.1-.2-1.5-.1-.5-.3-.9-.7-1.3-.3-.4-.8-.7-1.5-.9-.6-.2-1.5-.4-2.6-.5l-8.2-.7c-1.7-.1-3.1-.5-4.3-1.1-1.2-.6-2.1-1.3-2.9-2.1-.7-.8-1.3-1.8-1.6-2.8-.3-1-.5-2.1-.5-3.2v-1.2c0-3.1 1.1-5.5 3.2-7.2 2.1-1.7 5.6-2.6 10.5-2.6h6.8c2.4 0 5 0 8 .1l-1.2 5.9c-1.9 0-3.6-.1-5-.1h-9.2c-2.3 0-3.9.3-4.8.8-.9.6-1.4 1.6-1.4 3 0 .6.1 1.1.2 1.6s.3.8.7 1.2c.3.3.8.6 1.5.8.7.2 1.5.4 2.6.5l7.8.8zM162.2 36.7c2.9 0 5.4.3 7.4.8s3.7 1.4 5 2.8c1.3 1.3 2.2 3.1 2.8 5.3.6 2.2.9 5 .9 8.3V57c0 3-.2 5.6-.7 7.7-.5 2.2-1.3 3.9-2.5 5.3s-2.8 2.4-4.9 3.1c-2.1.7-4.8 1-8 1-2.1 0-3.9-.3-5.4-.8-1.5-.5-2.7-1.2-3.6-2v13.6H146V53.5c0-3.2.3-5.9.9-8.1.6-2.2 1.6-3.9 2.9-5.2 1.3-1.3 3-2.2 5-2.8 2-.4 4.4-.7 7.4-.7zm-.1 31.5c1.9 0 3.4-.1 4.6-.4 1.2-.3 2.1-.8 2.7-1.6.7-.8 1.1-2 1.3-3.4.2-1.5.3-3.4.3-5.8v-3.1c0-2.5-.1-4.5-.3-6-.2-1.5-.7-2.6-1.3-3.4-.7-.8-1.6-1.3-2.7-1.6-1.2-.2-2.7-.4-4.5-.4-1.8 0-3.3.1-4.5.4-1.2.2-2.1.8-2.8 1.5-.7.8-1.1 1.9-1.4 3.3-.3 1.4-.4 3.3-.4 5.7v4.8c0 2 .1 3.6.4 4.9.3 1.3.8 2.3 1.4 3 .7.7 1.6 1.3 2.8 1.5 1.1.4 2.6.6 4.4.6zM190 58c0 1.9.1 3.4.3 4.6.2 1.2.6 2.1 1.2 2.8.6.7 1.5 1.1 2.6 1.4 1.1.2 2.5.4 4.4.4h5c2 0 4.6 0 7.9-.1l-1.2 5.9c-1.4 0-2.6.1-3.6.1h-8.1c-3.2 0-5.8-.4-7.9-1.1-2-.7-3.6-1.8-4.8-3.2-1.2-1.4-1.9-3.1-2.4-5-.4-2-.6-4.2-.6-6.6v-3.8c0-2.6.2-4.9.6-7 .4-2.1 1.2-3.8 2.4-5.2 1.2-1.4 2.8-2.5 4.8-3.3 2.1-.8 4.8-1.2 8.1-1.2 3 0 5.5.4 7.5 1.1 1.9.7 3.5 1.7 4.6 2.9 1.1 1.2 1.9 2.6 2.3 4.1.4 1.6.6 3.2.6 4.9v1c0 1.6-.1 2.9-.3 3.9-.2 1-.5 1.7-.9 2.2-.4.5-.9.9-1.5 1-.6.2-1.4.2-2.2.2H190zm8.5-15.7c-1.8 0-3.3.1-4.4.4-1.1.3-1.9.8-2.6 1.5-.6.7-1 1.8-1.2 3.1-.2 1.3-.3 3-.3 5.1h17v-2.3c0-1.5-.1-2.8-.4-3.8-.3-1-.7-1.8-1.4-2.4-.7-.6-1.5-1-2.6-1.3-1.1-.1-2.5-.3-4.1-.3zM219 72.9V48.1c0-4.1 1.3-7 3.8-8.8 2.5-1.8 6.5-2.7 11.8-2.7 5.4 0 9.3.9 11.8 2.7 2.5 1.8 3.8 4.7 3.8 8.8v24.8H243V49.5c0-1.1-.1-2.1-.2-3-.1-.9-.5-1.6-1-2.2-.5-.6-1.4-1-2.5-1.3-1.1-.3-2.7-.4-4.7-.4s-3.6.1-4.7.4c-1.1.3-2 .7-2.5 1.3-.5.6-.9 1.3-1 2.2-.1.9-.2 1.9-.2 3v23.4H219zM271.4 72.9c-3 0-5.5-.3-7.6-.9-2-.6-3.7-1.6-4.9-3-1.2-1.4-2.1-3.1-2.6-5.3-.5-2.2-.8-4.8-.8-7.9v-2.6c0-2.8.2-5.2.7-7.2.5-2.1 1.3-3.8 2.5-5.2 1.2-1.4 2.8-2.5 4.8-3.2 2-.7 4.6-1.1 7.7-1.1 2.2 0 4.1.2 5.8.7s3 1.1 3.8 1.9V22.4h7.2v44.7c0 2.1-.5 3.6-1.4 4.5-1 .9-2.8 1.4-5.5 1.4h-9.7zm9.4-5.8V51.2c0-1.8-.1-3.2-.4-4.4-.3-1.1-.7-2-1.4-2.7-.7-.7-1.6-1.1-2.8-1.3-1.2-.2-2.7-.3-4.5-.3-1.9 0-3.4.1-4.6.4-1.2.3-2.1.8-2.7 1.6-.6.8-1.1 1.9-1.3 3.3-.2 1.4-.3 3.2-.3 5.4v2.6c0 2.4.1 4.3.3 5.7.2 1.5.6 2.6 1.3 3.4.6.8 1.5 1.4 2.7 1.6 1.2.3 2.7.4 4.7.4h9z"/><g><path d="M316.4 46.3l-7.1 26.6H302l-10.4-35.2h7.2l7 27.7 7.4-27.7h6.9l7.1 27.8 7.4-27.8h6.7l-10.6 35.2h-7.4l-6.9-26.6zM349.5 58c0 1.9.1 3.4.3 4.6.2 1.2.6 2.1 1.2 2.8.6.7 1.5 1.1 2.6 1.4 1.1.2 2.5.4 4.4.4h5c2 0 4.6 0 7.9-.1l-1.2 5.9c-1.4 0-2.6.1-3.6.1H358c-3.2 0-5.8-.4-7.9-1.1-2-.7-3.6-1.8-4.8-3.2-1.2-1.4-1.9-3.1-2.4-5-.4-2-.6-4.2-.6-6.6v-3.8c0-2.6.2-4.9.6-7 .4-2.1 1.2-3.8 2.4-5.2 1.2-1.4 2.8-2.5 4.8-3.3 2.1-.8 4.8-1.2 8.1-1.2 3 0 5.5.4 7.5 1.1 1.9.7 3.5 1.7 4.6 2.9 1.1 1.2 1.9 2.6 2.3 4.1.4 1.6.6 3.2.6 4.9v1c0 1.6-.1 2.9-.3 3.9-.2 1-.5 1.7-.9 2.2-.4.5-.9.9-1.5 1-.6.2-1.4.2-2.2.2h-18.8zm8.5-15.7c-1.8 0-3.3.1-4.4.4-1.1.3-1.9.8-2.6 1.5-.6.7-1 1.8-1.2 3.1-.2 1.3-.3 3-.3 5.1h17v-2.3c0-1.5-.1-2.8-.4-3.8-.3-1-.7-1.8-1.4-2.4-.7-.6-1.5-1-2.6-1.3-1-.1-2.4-.3-4.1-.3zM378.5 22.4h7.2v50.5h-7.2V22.4zM391.8 22.4h7.2v50.5h-7.2V22.4z"/></g><path d="M107.5 32.8c-.7-8.7-6.1-15.7-14.9-19.2-7.8-3.1-16.7-2.8-23.7.3C65.7 6.4 58.1 1 49.4 1H1v3.6C1 12.4 5.8 19.1 12.6 22c.8 7 5.4 12.9 11.7 15.4C25.4 46.7 33.3 54 43 54h.3v15.6H23.9c-.4 0-.8.4-.8.8v2.8C23.1 86.4 33.8 97 46.9 97h2.8c.4 0 .8-.4.8-.8V76.9h18.9c11.6 0 21.1-9.4 21.1-21.1v-9.4c0-5.4 4.4-9.7 9.7-9.7h7.4l-.1-3.9zM43.3 85.6v3.9C37 88.1 32 83.2 30.6 76.9h12.7v8.7zm40-39.2v9.4c0 7.7-6.3 13.9-13.9 13.9H50.5V47H43c-5.2 0-9.7-3.4-11.2-8.1h18.7v-7.1H31.1c-5.2-.1-9.6-3.5-11.1-8.1h30.4v-7.1H19.9c-5.2 0-9.7-3.4-11.2-8.2h40.7c7.7 0 13.9 6.2 13.9 13.9v24.9h7.1V22.3c0-.2-.1-.5-.1-.7 5.4-3 13-3.6 19.5-1 3 1.2 7.7 3.9 9.6 9.3-8.9.1-16.1 7.5-16.1 16.5"/></g></svg>