<?xml version="1.0" encoding="utf-8"?>
<!-- Generator: Adobe Illustrator 18.1.1, SVG Export Plug-In . SVG Version: 6.00 Build 0)  -->
<svg version="1.0" id="Layer_1" xmlns="http://www.w3.org/2000/svg" xmlns:xlink="http://www.w3.org/1999/xlink" x="0px" y="0px"
	 width="156px" height="28px" viewBox="0 0 156 28" enable-background="new 0 0 156 28" xml:space="preserve">
<g>
	<g>
		<g>
			<path fill="#FFFFFF" d="M33.8,22.1V11.4c0-1.6-0.4-3-2.4-3c-0.8,0-1.8,0.5-2.2,1c-0.5,0.8-0.6,1.7-0.6,2.3v10.4h-2.5V9.9
				c0-1.1-0.1-2.1-0.2-3.2h2.6v1.9h0.1c0.7-1.7,2-2.2,3.8-2.2c1.4,0,3,0.6,3.6,2c0.9-1.7,2.2-2,3.6-2c1.6,0,4.2,0.4,4.2,4v11.8h-2.5
				V11.4c0-1.6-0.4-3-2.4-3c-0.9,0-1.2,0-1.9,0.6c-0.7,0.6-0.8,2.1-0.8,2.7v10.4H33.8z"/>
			<path fill="#FFFFFF" d="M47,14.6c0-4.5,0.5-8.3,5.8-8.3c5.3,0,5.8,3.7,5.8,8.3c0,6.8-2.6,7.8-5.8,7.8C49.6,22.4,47,21.5,47,14.6z
				 M56.1,13.6c0-4.2-1.3-5.2-3.2-5.2c-1.9,0-3.2,0.9-3.2,5.2c0,5,0.6,6.8,3.2,6.8S56.1,18.6,56.1,13.6z"/>
			<path fill="#FFFFFF" d="M70.2,22.1V11.4c0-1.7-0.6-3-2.7-3c-2.7,0-3.1,2.5-3.1,4.6v9.2h-2.5V9.9c0-1.1-0.1-2.1-0.2-3.2h2.6v2h0.1
				c1-1.7,2.1-2.3,4.1-2.3c3.3,0,4.1,2,4.1,5.1v10.7H70.2z"/>
			<path fill="#FFFFFF" d="M78.7,15.2c0,4.3,1.2,5.2,3.1,5.2c1.7,0,2.6-1.4,2.7-2.9h2.7c0,3.4-2.1,5-5.3,5c-3.2,0-5.8-1-5.8-7.8
				c0-4.5,0.5-8.3,5.8-8.3c4.4,0,5.5,2.4,5.5,7.5v1.3H78.7z M84.7,13.3c0-4.5-1.2-5.1-3.1-5.1c-1.6,0-2.9,0.8-2.9,5.1H84.7z"/>
			<path fill="#FFFFFF" d="M95.3,19.3L95.3,19.3L99,6.7h2.7l-7,21.3h-2.6l1.7-5.9L88.7,6.7h2.9L95.3,19.3z"/>
			<path fill="#FFFFFF" d="M106.1,22.1h-2.5V0h2.5v8.2h0.1c0.8-1.2,1.9-1.9,3.4-1.9c4.9,0,5.1,4.4,5.1,8.3c0,6.8-2.5,7.8-4.9,7.8
				c-1.6,0-2.7-0.7-3.5-2.1h-0.1V22.1z M108.9,20.4c3.1,0,3.1-3.4,3.1-5.7c0-4.1-0.4-6.3-3-6.3c-2.8,0-2.9,3.3-2.9,5.4
				C106.1,16.1,105.8,20.4,108.9,20.4z"/>
			<path fill="#FFFFFF" d="M125.7,19.9L125.7,19.9c-0.8,1.8-2,2.5-3.9,2.5c-3.2,0-4.2-2.1-4.2-5.1c0-4.7,4.6-4.9,8-4.8
				c0.1-2.1,0.1-4.3-2.6-4.3c-1.7,0-2.6,1.1-2.4,2.8H118c0.1-3.5,1.9-4.7,5.2-4.7c3.9,0,5,2.1,5,4.7v7.5c0,1.2,0.1,2.5,0.3,3.7h-2.7
				V19.9z M120.1,17.5c0,1.5,0.7,2.9,2.4,2.9c1.5,0,3.4-1,3.2-5.9C123.3,14.5,120.1,14.3,120.1,17.5z"/>
			<path fill="#FFFFFF" d="M136.8,22.4c-3.3,0-5.4-1.5-5.3-5h2.8c0,0.9,0,3,2.6,3c1.5,0,2.6-0.8,2.6-2.4c0-2.8-7.7-2.8-7.7-7.5
				c0-1.6,1-4.2,5.3-4.2c2.7,0,5.1,1.3,4.9,4.4h-2.8c0-1.6-0.8-2.5-2.4-2.5c-1.3,0-2.4,0.7-2.4,2.1c0,2.7,7.7,2.7,7.7,7.4
				C142.1,21.1,139.8,22.4,136.8,22.4z"/>
			<path fill="#FFFFFF" d="M147.4,15.2c0,4.3,1.2,5.2,3.1,5.2c1.7,0,2.6-1.4,2.7-2.9h2.7c0,3.4-2.1,5-5.3,5c-3.2,0-5.8-1-5.8-7.8
				c0-4.5,0.5-8.3,5.8-8.3c4.4,0,5.5,2.4,5.5,7.5v1.3H147.4z M153.4,13.3c0-4.5-1.2-5.1-3.1-5.1c-1.6,0-2.9,0.8-2.9,5.1H153.4z"/>
		</g>
	</g>
	<g>
		<rect x="16.4" y="1" fill="#FFFFFF" width="4.2" height="24"/>
		<rect x="8.2" y="5" fill="#FFFFFF" width="4.2" height="20"/>
		<rect x="0" y="9" fill="#FFFFFF" width="4.2" height="16"/>
	</g>
</g>
</svg>
