<?xml version="1.0" encoding="utf-8"?>
<!-- Generator: Adobe Illustrator 18.1.1, SVG Export Plug-In . SVG Version: 6.00 Build 0)  -->
<svg version="1.0" id="Layer_1" xmlns="http://www.w3.org/2000/svg" xmlns:xlink="http://www.w3.org/1999/xlink" x="0px" y="0px"
	 width="148px" height="28px" viewBox="0 0 148 28" enable-background="new 0 0 148 28" xml:space="preserve">
<g>
	<g>
		<path fill="#FFFFFF" d="M37,22.4c-3.3,0-5.4-1.5-5.3-5h2.9c0,0.9,0,3,2.6,3c1.5,0,2.7-0.8,2.7-2.4c0-2.8-7.7-2.8-7.7-7.5
			c0-1.6,1-4.2,5.3-4.2c2.8,0,5.1,1.3,4.9,4.4h-2.8c0-1.6-0.8-2.5-2.4-2.5c-1.3,0-2.4,0.7-2.4,2.1c0,2.7,7.7,2.7,7.7,7.4
			C42.4,21.1,40.1,22.4,37,22.4z"/>
		<path fill="#FFFFFF" d="M48,8.5L48,8.5c0.9-1.4,2-2.1,3.6-2.1c2.5,0,5,1,5,7.8c0,3.9-0.1,8.3-5.1,8.3c-1.5,0-2.5-0.6-3.4-1.9H48
			V28h-2.5V6.7H48V8.5z M54,14.1c0-2.3,0-5.7-3.2-5.7c-3.1,0-2.8,4.3-2.8,6.7c0,2.1,0.1,5.3,2.9,5.3C53.7,20.4,54,18.3,54,14.1z"/>
		<path fill="#FFFFFF" d="M62.3,15.2c0,4.3,1.2,5.2,3.1,5.2c1.7,0,2.6-1.4,2.7-2.9h2.8c0,3.4-2.1,5-5.4,5c-3.3,0-5.9-1-5.9-7.8
			c0-4.5,0.5-8.3,5.9-8.3c4.4,0,5.5,2.4,5.5,7.5v1.3H62.3z M68.4,13.3c0-4.5-1.3-5.1-3.1-5.1c-1.6,0-2.9,0.8-2.9,5.1H68.4z"/>
		<path fill="#FFFFFF" d="M82.8,22.1V11.4c0-1.7-0.6-3-2.7-3c-2.8,0-3.2,2.5-3.2,4.6v9.2h-2.5V9.9c0-1.1-0.1-2.1-0.2-3.2H77v2h0.1
			c1-1.7,2.1-2.3,4.1-2.3c3.3,0,4.1,2,4.1,5.1v10.7H82.8z"/>
		<path fill="#FFFFFF" d="M97.2,0h2.5v22.1h-2.5v-1.8h-0.1c-0.9,1.4-1.9,2.1-3.6,2.1c-2.5,0-5-1-5-7.8c0-3.9,0.1-8.3,5.1-8.3
			c1.5,0,2.5,0.6,3.4,1.9h0.1V0z M94.3,8.4c-2.7,0-3.1,2.1-3.1,6.3c0,2.3,0,5.7,3.2,5.7c2.8,0,2.8-3.5,2.8-6.6
			C97.2,11.7,97.1,8.4,94.3,8.4z"/>
		<path fill="#FFFFFF" d="M101.6,6.7h2.8l2.8,13.3h0.1l3.4-13.3h3.6l3.2,13.3h0.1l3.1-13.3h2.7l-4.1,15.5h-3.4L112.4,9h-0.1
			l-3.5,13.2h-3.4L101.6,6.7z"/>
		<path fill="#FFFFFF" d="M127.4,15.2c0,4.3,1.2,5.2,3.1,5.2c1.7,0,2.6-1.4,2.7-2.9h2.8c0,3.4-2.1,5-5.4,5c-3.3,0-5.9-1-5.9-7.8
			c0-4.5,0.5-8.3,5.9-8.3c4.4,0,5.5,2.4,5.5,7.5v1.3H127.4z M133.4,13.3c0-4.5-1.3-5.1-3.1-5.1c-1.6,0-2.9,0.8-2.9,5.1H133.4z"/>
		<path fill="#FFFFFF" d="M142,22.1h-2.5V0h2.5V22.1z"/>
		<path fill="#FFFFFF" d="M148,22.1h-2.5V0h2.5V22.1z"/>
	</g>
</g>
<path fill="#FFFFFF" d="M2.6,8.3C5.3,6,7.4,4.2,13.2,7.5C16,9,18.3,9.6,20.2,9.6c3.3,0,5.4-1.8,7.3-3.4c0.7-0.6,0.7-1.6,0.2-2.2
	c-0.6-0.7-1.5-0.8-2.2-0.2C22.7,6.1,20.6,8,14.7,4.7C7,0.3,3.4,3.4,0.6,5.9c-0.7,0.6-0.7,1.6-0.2,2.2C0.9,8.8,1.9,8.9,2.6,8.3z
	 M25.4,11.7c-2.7,2.3-4.9,4.2-10.7,0.9C7,8.3,3.4,11.4,0.6,13.8c-0.7,0.6-0.7,1.6-0.2,2.2c0.6,0.7,1.5,0.8,2.2,0.2
	c2.7-2.3,4.9-4.2,10.7-0.9c2.8,1.6,5.1,2.2,6.9,2.2c3.3,0,5.4-1.8,7.3-3.4c0.7-0.6,0.7-1.6,0.2-2.2C27.1,11.2,26.1,11.2,25.4,11.7z
	 M25.4,19.7c-2.7,2.3-4.9,4.2-10.7,0.9C7,16.2,3.4,19.3,0.6,21.8c-0.7,0.6-0.7,1.6-0.2,2.2c0.6,0.7,1.5,0.8,2.2,0.2
	c2.7-2.3,4.9-4.2,10.7-0.9c2.8,1.6,5.1,2.2,6.9,2.2c3.3,0,5.4-1.8,7.3-3.4c0.7-0.6,0.7-1.6,0.2-2.2C27.1,19.2,26.1,19.1,25.4,19.7z"
	/>
</svg>
