<?xml version="1.0" encoding="utf-8"?>
<!-- Generator: Adobe Illustrator 18.1.1, SVG Export Plug-In . SVG Version: 6.00 Build 0)  -->
<svg version="1.0" id="Layer_1" xmlns="http://www.w3.org/2000/svg" xmlns:xlink="http://www.w3.org/1999/xlink" x="0px" y="0px"
	 width="160px" height="31px" viewBox="0 0 160 31" enable-background="new 0 0 160 31" xml:space="preserve">
<g>
	<path fill="#FFFFFF" d="M23.1,24.5c0,1.4-1.1,2.5-2.4,2.5l0,0c-1.3,0-2.4-1.1-2.4-2.5v-19c0-1.4,1.1-2.5,2.4-2.5l0,0
		c1.3,0,2.4,1.1,2.4,2.5V24.5z"/>
	<path fill="#FFFFFF" d="M14.7,24.5c0,1.4-1.1,2.5-2.4,2.5l0,0c-1.3,0-2.4-1.1-2.4-2.5v-15C9.9,8.1,11,7,12.3,7l0,0
		c1.3,0,2.4,1.1,2.4,2.5V24.5z"/>
	<path fill="#FFFFFF" d="M6.2,24.5c0,1.4-1.1,2.5-2.4,2.5l0,0c-1.3,0-2.4-1.1-2.4-2.5v-11c0-1.4,1.1-2.5,2.4-2.5l0,0
		c1.3,0,2.4,1.1,2.4,2.5V24.5z"/>
</g>
<g>
	<g>
		<path fill="#FFFFFF" d="M35.8,24.1V13.4c0-1.6-0.4-3-2.4-3c-0.8,0-1.8,0.5-2.2,1c-0.5,0.8-0.6,1.7-0.6,2.3v10.4h-2.5V11.9
			c0-1.1-0.1-2.1-0.2-3.2h2.6v1.9h0.1c0.7-1.6,2-2.2,3.8-2.2c1.4,0,3,0.6,3.6,2c0.9-1.6,2.3-2,3.7-2c1.6,0,4.2,0.4,4.2,4v11.7h-2.5
			V13.4c0-1.6-0.4-3-2.4-3c-0.9,0-1.2,0-1.9,0.6c-0.7,0.6-0.9,2.1-0.9,2.7v10.4H35.8z"/>
		<path fill="#FFFFFF" d="M49.1,16.6c0-4.5,0.5-8.2,5.8-8.2c5.3,0,5.8,3.7,5.8,8.2c0,6.8-2.6,7.8-5.8,7.8S49.1,23.4,49.1,16.6z
			 M58.2,15.5c0-4.2-1.3-5.1-3.2-5.1c-1.9,0-3.2,0.9-3.2,5.1c0,5,0.6,6.8,3.2,6.8S58.2,20.5,58.2,15.5z"/>
		<path fill="#FFFFFF" d="M72.3,24.1V13.4c0-1.6-0.6-3-2.7-3c-2.7,0-3.1,2.4-3.1,4.5v9.1H64V11.9c0-1.1-0.1-2.1-0.2-3.2h2.6v2h0.1
			c1-1.7,2.1-2.3,4.1-2.3c3.3,0,4.1,2,4.1,5v10.7H72.3z"/>
		<path fill="#FFFFFF" d="M80.9,17.2c0,4.3,1.2,5.1,3.1,5.1c1.7,0,2.6-1.4,2.7-2.9h2.7c0,3.4-2.1,5-5.4,5c-3.3,0-5.8-1-5.8-7.8
			c0-4.5,0.5-8.2,5.8-8.2c4.4,0,5.5,2.4,5.5,7.5v1.3H80.9z M86.9,15.3c0-4.5-1.2-5-3.1-5c-1.6,0-2.9,0.8-2.9,5H86.9z"/>
		<path fill="#FFFFFF" d="M97.5,21.2L97.5,21.2l3.7-12.5h2.7l-7,21.2h-2.6l1.7-5.8L91,8.7h2.9L97.5,21.2z"/>
		<path fill="#FFFFFF" d="M108.4,24.1h-2.5v-22h2.5v8.2h0.1c0.9-1.2,1.9-1.9,3.4-1.9c5,0,5.1,4.4,5.1,8.3c0,6.8-2.5,7.7-5,7.7
			c-1.6,0-2.7-0.7-3.5-2.1h-0.1V24.1z M111.2,22.3c3.1,0,3.1-3.4,3.1-5.7c0-4.1-0.4-6.2-3-6.2c-2.8,0-2.9,3.3-2.9,5.3
			C108.4,18.1,108.1,22.3,111.2,22.3z"/>
		<path fill="#FFFFFF" d="M128,21.8L128,21.8c-0.8,1.8-2,2.5-3.9,2.5c-3.3,0-4.2-2.1-4.2-5.1c0-4.7,4.6-4.9,8.1-4.8
			c0.1-2,0.1-4.3-2.6-4.3c-1.7,0-2.6,1.1-2.4,2.7h-2.7c0.1-3.4,1.9-4.6,5.2-4.6c4,0,5,2,5,4.6v7.4c0,1.2,0.1,2.5,0.3,3.7H128V21.8z
			 M122.4,19.5c0,1.5,0.7,2.8,2.4,2.8c1.5,0,3.4-0.9,3.2-5.9C125.6,16.4,122.4,16.2,122.4,19.5z"/>
		<path fill="#FFFFFF" d="M139.1,24.4c-3.3,0-5.4-1.5-5.3-5h2.8c0,0.9,0,3,2.6,3c1.5,0,2.6-0.8,2.6-2.3c0-2.7-7.7-2.8-7.7-7.4
			c0-1.6,1-4.2,5.3-4.2c2.7,0,5.1,1.3,4.9,4.4h-2.8c0-1.6-0.8-2.5-2.4-2.5c-1.3,0-2.4,0.7-2.4,2.1c0,2.7,7.7,2.6,7.7,7.3
			C144.5,23,142.2,24.4,139.1,24.4z"/>
		<path fill="#FFFFFF" d="M149.8,17.2c0,4.3,1.2,5.1,3.1,5.1c1.7,0,2.6-1.4,2.7-2.9h2.7c0,3.4-2.1,5-5.4,5c-3.3,0-5.8-1-5.8-7.8
			c0-4.5,0.5-8.2,5.8-8.2c4.4,0,5.5,2.4,5.5,7.5v1.3H149.8z M155.8,15.3c0-4.5-1.2-5-3.1-5c-1.6,0-2.9,0.8-2.9,5H155.8z"/>
	</g>
</g>
</svg>
