<?xml version="1.0" encoding="utf-8"?>
<!-- Generator: Adobe Illustrator 18.1.1, SVG Export Plug-In . SVG Version: 6.00 Build 0)  -->
<svg version="1.1" id="Layer_1" xmlns="http://www.w3.org/2000/svg" xmlns:xlink="http://www.w3.org/1999/xlink" x="0px" y="0px"
	 width="126px" height="126px" viewBox="0 0 126 126" enable-background="new 0 0 126 126" xml:space="preserve">
<g>
	<path fill="#388A48" d="M55.4,1L52,1.5C26.9,5.6,6.8,25,2,50l-0.7,3.5h54.1V1z M49.5,47.5H8.7c5.1-19.6,21-34.9,40.8-39.4V47.5z"/>
	<path fill="#388A48" d="M125.3,63l0-0.4c-0.5-15.8-7-30.6-18.4-41.7C95.5,9.8,80.5,3.7,64.6,3.7h-3v55.9H4L3.9,63
		c0,0.5,0,0.9,0,1.4c0,33.4,27.2,60.6,60.7,60.6c33.5,0,60.7-27.2,60.7-60.6C125.3,63.9,125.3,63.4,125.3,63z M64.6,119l0,3
		L64.6,119c-29.8,0-54.1-23.8-54.8-53.4h57.7V9.8c28.4,1.5,50.9,24.2,51.7,53l0,0.5c0,0.4,0,0.8,0,1.2C119.3,94.5,94.8,119,64.6,119
		z"/>
</g>
</svg>
