<svg xmlns="http://www.w3.org/2000/svg" width="120" height="122" viewBox="0 0 120 122"><g fill="#388A48"><path d="M35.2 61.9c3.6 0 6.5-2.9 6.5-6.5 0-.7-.1-1.4-.3-2L56 38.5l14.4 11.1 13.9-15.2c.9.2 1.9.3 2.9 0 3.4-.8 5.5-4.2 4.7-7.6-.8-3.4-4.2-5.5-7.6-4.7-3.4.8-5.5 4.2-4.7 7.6 0 .2.1.4.2.6L69.7 41.4l-14.3-11-18.3 18.7c-.6-.2-1.2-.3-1.9-.3-3.6 0-6.5 2.9-6.5 6.5 0 3.7 2.9 6.6 6.5 6.6z"/><path d="M113 1H7C3.7 1 1 3.7 1 7s2.7 6 6 6h3.2v71.6h31.3c1 1.8 3 3 5.2 3H57v13.8H33.6c-4.1 0-7.4 3.3-7.4 7.4V121h67.6v-12.1c0-4.1-3.3-7.4-7.4-7.4H63V87.7h10.3c2.2 0 4.2-1.2 5.2-3h31.3V13.1h3.2c3.3 0 6-2.7 6-6S116.3 1 113 1zM87.7 108.9v6.1H32.3v-6.1c0-.7.6-1.3 1.3-1.3h52.8c.7 0 1.3.6 1.3 1.3zm16-30.2H78.5c-1-1.8-3-3-5.2-3H46.7c-2.2 0-4.2 1.2-5.2 3H16.3V13.1h87.5v65.6z"/><path d="M88.4 58.6H72.8c-1.1 0-2 .9-2 2s.9 2 2 2h15.6c1.1 0 2-.9 2-2 .1-1.1-.8-2-2-2zM88.4 65.9H72.8c-1.1 0-2 .9-2 2s.9 2 2 2h15.6c1.1 0 2-.9 2-2s-.8-2-2-2z"/></g></svg>