<?xml version="1.0" encoding="utf-8"?>
<!-- Generator: Adobe Illustrator 18.1.1, SVG Export Plug-In . SVG Version: 6.00 Build 0)  -->
<svg version="1.1" id="Layer_1" xmlns="http://www.w3.org/2000/svg" xmlns:xlink="http://www.w3.org/1999/xlink" x="0px" y="0px"
	 width="120px" height="122px" viewBox="0 0 120 122" enable-background="new 0 0 120 122" xml:space="preserve">
<g>
	<path fill="#388A48" d="M35.2,61.9c3.6,0,6.5-2.9,6.5-6.5c0-0.7-0.1-1.4-0.3-2L56,38.5l14.4,11.1l13.9-15.2c0.9,0.2,1.9,0.3,2.9,0
		c3.4-0.8,5.5-4.2,4.7-7.6c-0.8-3.4-4.2-5.5-7.6-4.7c-3.4,0.8-5.5,4.2-4.7,7.6c0,0.2,0.1,0.4,0.2,0.6L69.7,41.4l-14.3-11L37.1,49.1
		c-0.6-0.2-1.2-0.3-1.9-0.3c-3.6,0-6.5,2.9-6.5,6.5C28.7,59,31.6,61.9,35.2,61.9z"/>
	<path fill="#388A48" d="M113,1H7C3.7,1,1,3.7,1,7s2.7,6,6,6h3.2v71.6h31.3c1,1.8,3,3,5.2,3H57v13.8H33.6c-4.1,0-7.4,3.3-7.4,7.4
		V121h67.6v-12.1c0-4.1-3.3-7.4-7.4-7.4H63V87.7h10.3c2.2,0,4.2-1.2,5.2-3h31.3V13.1h3.2c3.3,0,6-2.7,6-6S116.3,1,113,1z
		 M87.7,108.9v6.1H32.3v-6.1c0-0.7,0.6-1.3,1.3-1.3h52.8C87.1,107.6,87.7,108.2,87.7,108.9z M103.7,78.7H78.5c-1-1.8-3-3-5.2-3H46.7
		c-2.2,0-4.2,1.2-5.2,3H16.3V13.1h87.5V78.7z"/>
	<path fill="#388A48" d="M88.4,58.6H72.8c-1.1,0-2,0.9-2,2c0,1.1,0.9,2,2,2h15.6c1.1,0,2-0.9,2-2C90.5,59.5,89.6,58.6,88.4,58.6z"/>
	<path fill="#388A48" d="M88.4,65.9H72.8c-1.1,0-2,0.9-2,2s0.9,2,2,2h15.6c1.1,0,2-0.9,2-2S89.6,65.9,88.4,65.9z"/>
</g>
</svg>
