<svg xmlns="http://www.w3.org/2000/svg" width="250" height="250" viewBox="0 0 250 250"><path fill="#FFF" d="M220.3 250H92.6V0h153.1v224.5c.1 14.1-11.4 25.5-25.4 25.5z"/><path fill="#FFD600" d="M176.2 25.2c0 3.9-3.1 7-7 7s-7-3.1-7-7 3.1-7 7-7 7 3.2 7 7z"/><path fill="#CCCBCA" d="M50 250c-14.1 0-25.5-11.4-25.5-25.5H152c0 14.1 11.4 25.5 25.5 25.5H50z"/><path fill="#E6E5E5" d="M131.4 86.1H226v5.6h-94.6zM112.4 81.3h10.4v10.4h-10.4zM131.4 102.1H226v5.6h-94.6zM112.4 97.3h10.4v10.4h-10.4zM131.4 118.1H226v5.6h-94.6zM112.4 113.3h10.4v10.4h-10.4zM131.4 134.1H226v5.6h-94.6zM112.4 129.3h10.4v10.4h-10.4zM131.4 150.1H226v5.6h-94.6zM112.4 145.3h10.4v10.4h-10.4z"/><g><path fill="#E6E5E5" d="M131.4 166.1H226v5.6h-94.6zM112.4 161.3h10.4v10.4h-10.4z"/></g><g><path fill="#E6E5E5" d="M131.4 182.1H226v5.6h-94.6zM112.4 177.3h10.4v10.4h-10.4z"/></g><g><path fill="#E6E5E5" d="M131.4 198.1H226v5.6h-94.6zM112.4 193.3h10.4v10.4h-10.4z"/></g><path fill="#FFD600" d="M112.4 55h113.5v11.7H112.4z"/><g><path fill="#474F59" d="M92.6 16.2h54.2c2.3 0 4.6.9 6.4 2.6 1.8 1.8 2.6 4.1 2.6 6.4 0 2.3-.9 4.6-2.6 6.4-1.8 1.8-4.1 2.6-6.4 2.6H92.6v-18z"/><g fill="#353F49"><path d="M144.7 16.2h2.1v18h-2.1zM140.5 16.2h2.1v18h-2.1zM136.3 16.2h2.1v18h-2.1z"/></g><g fill="#FFD600"><path d="M14.7 46.2c-2.7 0-5.4-1-7.4-3.1-2-2-3.1-4.7-3.1-7.4s1-5.4 3.1-7.4c2.1-2.1 4.7-3.1 7.4-3.1h35.1c-4.6 12.3-16.4 21-30.3 21h-4.8zM14.7 4.2c-2.7 0-5.4 1-7.4 3.1S4.2 12 4.2 14.7s1 5.4 3.1 7.4c2.1 2.1 4.7 3.1 7.4 3.1h35.1c-4.6-12.3-16.4-21-30.3-21h-4.8z"/></g><path fill="#E6E5E5" d="M42.4 27.3c.6.6 1.4.9 2.1.9h35.6c5.1 0 9.5 2.3 12.5 6v-18c-2.9 3.7-7.4 6-12.5 6H44.5c-.8 0-1.5.3-2.1.9-.6.6-.9 1.4-.9 2.1 0 .8.3 1.6.9 2.1z"/><path fill="#D9D8D7" d="M169.2 26.7c.4 0 .8-.1 1.1-.4.3-.3.4-.7.4-1.1 0-.4-.1-.8-.4-1.1-.3-.3-.7-.4-1.1-.4h-13.5v3h13.5z"/></g></svg>