<svg xmlns="http://www.w3.org/2000/svg" width="132" height="110" viewBox="0 0 132 110"><g fill="#388A48"><path d="M128.9 97.1c-.1-.1-8.3-8.2-13.6-13.2-2.8-2.7-7.2-2.6-9.9.2-2.7 2.8-2.6 7.2.2 9.9 5.3 5.1 13.5 13.1 13.5 13.2 1.4 1.3 3.1 2 4.9 2 1.8 0 3.6-.7 5-2.1 2.7-2.9 2.7-7.3-.1-10zM106.4 79.5l-5.5-5.3h22.5V8.7H86.2C79.3 3.7 71 1 62.2 1 53.3 1 45 3.9 38.3 8.7H1v65.4h37c7 5.2 15.4 8 24.3 8 9.1 0 17.5-3 24.2-8h2.9l11.4 11 5.6-5.6zm11-11.3H94.7l-1-.9c5.8-7 9.3-16 9.3-25.7 0-10-3.6-19.4-10.2-26.9h24.6v53.5zM7 14.7h24.7c-6.4 7.2-10.3 16.6-10.3 26.9 0 9.9 3.5 19.2 10 26.6H7V14.7zm55.2 61.5c-9.3 0-18-3.6-24.6-10.1-6.6-6.5-10.2-15.2-10.2-24.5C27.5 22.5 43.1 7 62.2 7c9.3 0 18 3.6 24.6 10.1C93.4 23.6 97 32.3 97 41.6c0 19-15.6 34.6-34.8 34.6z"/><path d="M73.8 41.5c-1.2-.8-2.5-1.4-4.1-1.8-1.5-.4-3-.7-4.6-1v-8.2c3.3.1 6.8.8 10.6 2.1v-7.3c-1.6-.5-3.3-1-5.1-1.3-1.9-.3-3.7-.5-5.5-.6v-3.7h-5.9v3.8c-2 .2-3.8.6-5.4 1.2-1.6.6-2.9 1.3-4 2.2-1.1.9-2 2-2.5 3.3-.6 1.3-.9 2.7-.9 4.3 0 2 .4 3.6 1.1 4.9.8 1.2 1.8 2.3 3 3 1.2.8 2.6 1.3 4.1 1.7 1.5.4 3.1.7 4.6.9v8c-1.3 0-2.4-.1-3.5-.2s-2.1-.3-3-.4c-1-.2-1.9-.4-2.8-.7-.9-.3-1.8-.6-2.8-.9V58c1.4.6 3.2 1.1 5.3 1.5 2.1.4 4.4.6 6.8.6v3.6h5.9v-3.8c4.1-.4 7.2-1.6 9.4-3.3 2.2-1.8 3.3-4.3 3.3-7.4 0-2-.4-3.6-1.1-4.8-.7-1.1-1.7-2.1-2.9-2.9zm-14.5-3.6c-1.6-.3-2.8-.7-3.6-1.2-.8-.5-1.2-1.3-1.2-2.4 0-.9.3-1.7 1-2.3.7-.6 1.9-1 3.7-1.2v7.1zm5.9 15V46c1.6.3 2.7.7 3.5 1.2.8.5 1.1 1.3 1.1 2.3 0 1.9-1.6 3-4.6 3.4z"/></g></svg>