<?xml version="1.0" encoding="utf-8"?>
<!-- Generator: Adobe Illustrator 18.1.1, SVG Export Plug-In . SVG Version: 6.00 Build 0)  -->
<svg version="1.1" id="Layer_1" xmlns="http://www.w3.org/2000/svg" xmlns:xlink="http://www.w3.org/1999/xlink" x="0px" y="0px"
	 width="132px" height="110px" viewBox="0 0 132 110" enable-background="new 0 0 132 110" xml:space="preserve">
<g>
	<path fill="#388A48" d="M128.9,97.1c-0.1-0.1-8.3-8.2-13.6-13.2c-2.8-2.7-7.2-2.6-9.9,0.2c-2.7,2.8-2.6,7.2,0.2,9.9
		c5.3,5.1,13.5,13.1,13.5,13.2c1.4,1.3,3.1,2,4.9,2c1.8,0,3.6-0.7,5-2.1C131.7,104.2,131.7,99.8,128.9,97.1z"/>
	<path fill="#388A48" d="M106.4,79.5l-5.5-5.3h22.5V8.7H86.2C79.3,3.7,71,1,62.2,1h0c-8.9,0-17.2,2.9-23.9,7.7H1v65.4h37
		c7,5.2,15.4,8,24.3,8h0h0c9.1,0,17.5-3,24.2-8c0,0,0.1,0,0.1,0h2.8l11.4,11L106.4,79.5z M117.4,68.2H94.7l-1-0.9
		c5.8-7,9.3-16,9.3-25.7c0-10-3.6-19.4-10.2-26.9h24.6V68.2z M7,14.7h24.7c-6.4,7.2-10.3,16.6-10.3,26.9c0,9.9,3.5,19.2,10,26.6H7
		V14.7z M62.2,76.2L62.2,76.2c-9.3,0-18-3.6-24.6-10.1c-6.6-6.5-10.2-15.2-10.2-24.5C27.5,22.5,43.1,7,62.2,7c0,0,0,0,0,0
		c9.3,0,18,3.6,24.6,10.1C93.4,23.6,97,32.3,97,41.6C97,60.6,81.4,76.2,62.2,76.2L62.2,76.2z"/>
	<path fill="#388A48" d="M73.8,41.5c-1.2-0.8-2.5-1.4-4.1-1.8c-1.5-0.4-3-0.7-4.6-1v-8.2c3.3,0.1,6.8,0.8,10.6,2.1v-7.3
		c-1.6-0.5-3.3-1-5.1-1.3c-1.9-0.3-3.7-0.5-5.5-0.6v-3.7h-5.9v3.8c-2,0.2-3.8,0.6-5.4,1.2c-1.6,0.6-2.9,1.3-4,2.2
		c-1.1,0.9-2,2-2.5,3.3c-0.6,1.3-0.9,2.7-0.9,4.3c0,2,0.4,3.6,1.1,4.9c0.8,1.2,1.8,2.3,3,3c1.2,0.8,2.6,1.3,4.1,1.7
		c1.5,0.4,3.1,0.7,4.6,0.9v8c-1.3,0-2.4-0.1-3.5-0.2c-1.1-0.1-2.1-0.3-3-0.4c-1-0.2-1.9-0.4-2.8-0.7c-0.9-0.3-1.8-0.6-2.8-0.9v7.2
		c1.4,0.6,3.2,1.1,5.3,1.5c2.1,0.4,4.4,0.6,6.8,0.6v3.6h5.9v-3.8c4.1-0.4,7.2-1.6,9.4-3.3c2.2-1.8,3.3-4.3,3.3-7.4
		c0-2-0.4-3.6-1.1-4.8C76,43.3,75,42.3,73.8,41.5z M59.3,37.9c-1.6-0.3-2.8-0.7-3.6-1.2c-0.8-0.5-1.2-1.3-1.2-2.4
		c0-0.9,0.3-1.7,1-2.3c0.7-0.6,1.9-1,3.7-1.2V37.9z M65.2,52.9V46c1.6,0.3,2.7,0.7,3.5,1.2c0.8,0.5,1.1,1.3,1.1,2.3
		C69.8,51.4,68.2,52.5,65.2,52.9z"/>
</g>
</svg>
