<svg xmlns="http://www.w3.org/2000/svg" width="44" height="60" viewBox="0 0 44 60"><g fill="#388A48"><path d="M13.1 21c0 1.2.7 2.2 1.6 2.8.9.6 2.4 1.1 4.4 1.5v-8.4c-3 .2-3.8.7-4.6 1.4-.7.7-1.4 1.6-1.4 2.7z"/><path d="M41.3 31.9c-1.1-1.8-2.5-3.4-4.2-4.5-1.6-1.1-3.5-1.9-5.5-2.5-1.1-.3-2.4-.6-3.4-.8v-4.4c3 .4 5.5 1.1 8.6 2.1l3.3 1.2V8.5l-1.6-.6c-2-.7-4-1.2-6.3-1.6-1.4-.2-3.1-.4-4.1-.6V1h-12v5c-2 .3-3.2.7-4.6 1.2-2.1.7-4 1.8-5.5 3.1-1.6 1.4-2.9 3-3.7 4.8-.9 1.9-1.3 4-1.3 6.3 0 2.9.6 5.3 1.7 7.2C3.8 30.5 5.3 32 7 33.1c1.7 1.1 3.6 1.9 5.7 2.4 1.1.3 2.4.5 3.4.7v4.4c-1 0-.8-.1-1.2-.1-1.2-.1-2.3-.3-3.4-.5-1-.2-2.1-.5-3.1-.7-1-.3-1.9-.6-2.9-1L2.2 37v14.3l1.4.7c1.8.9 4.2 1.5 6.9 2 1.8.3 3.7.5 5.7.7V59h12v-4.8c4-.7 7.5-2.2 10-4.2 3.2-2.7 4.8-6.4 4.8-11 0-2.8-.6-5.2-1.7-7.1zm-5 15.9c-2.6 2.1-6.1 3.5-11.1 4v4.1h-6V52c-3-.1-5.9-.3-8.4-.8-2.5-.4-4.6-1-6.6-1.8v-8.6c1 .4 2.4.8 3.5 1.1 1.1.3 2.2.6 3.4.8 1.1.2 2.6.4 3.8.5 1.2.1 2.3.2 4.3.2v-9.6c-2-.3-3.8-.6-5.6-1.1-1.8-.5-3.5-1.1-4.9-2-1.4-.9-2.6-2.1-3.5-3.6-.9-1.5-1.4-3.4-1.4-5.8 0-1.9.3-3.6 1-5.2.7-1.5 1.7-2.8 3-3.9s3.1-2 5-2.7c1.9-.7 3.5-1.1 6.5-1.4v-4h6v4.1c2 .1 4.5.4 6.7.7 2.2.4 4.3.9 6.3 1.5v8.7c-5-1.5-9-2.3-13-2.5v9.7c2 .3 3.8.7 5.5 1.2 1.8.5 3.4 1.2 4.8 2.1 1.4.9 2.6 2.1 3.4 3.6.9 1.5 1.2 3.4 1.2 5.7 0 3.9-1.3 6.8-3.9 8.9z"/><path d="M29.4 36.4c-.9-.6-2.2-1.1-4.2-1.4v8.2c4-.5 5.4-1.8 5.4-4 0-1.2-.4-2.2-1.2-2.8z"/></g></svg>