<svg xmlns="http://www.w3.org/2000/svg" width="122" height="126" viewBox="0 0 122 126"><g fill="#388A48"><path d="M108.6 1H13.4C6.6 1 1 6.5 1 13.3v92.8c0 6.8 5.6 12.3 12.4 12.3h4.7v2.5c0 2.2 1.8 4 4 4h17.2c2.2 0 4-1.8 4-4v-2.5h35.2v2.5c0 2.2 1.8 4 4 4h17.2c2.2 0 4-1.8 4-4v-2.5h4.7c6.9 0 12.4-5.5 12.4-12.3V13.3C121 6.5 115.4 1 108.6 1zM39.4 121H22.2v-2.5h17.2v2.5zm60.4 0H82.6v-2.5h17.2v2.5zm15.2-14.9c0 3.5-2.9 6.3-6.4 6.3H13.4c-3.5 0-6.4-2.8-6.4-6.3V13.3C7 9.8 9.9 7 13.4 7h95.1c3.5 0 6.4 2.8 6.4 6.3v92.8z"/><path d="M39.5 45.2c-8.1 0-14.6 6.5-14.6 14.5s6.6 14.5 14.6 14.5 14.6-6.5 14.6-14.5-6.6-14.5-14.6-14.5zm0 25c-5.8 0-10.6-4.7-10.6-10.5s4.7-10.5 10.6-10.5c5.8 0 10.6 4.7 10.6 10.5-.1 5.8-4.8 10.5-10.6 10.5z"/><ellipse cx="39.5" cy="59.7" rx="4.3" ry="4.2"/><path d="M109.4 44.1c1.1 0 2.1-.4 2.9-1.2.8-.8 1.2-1.8 1.2-2.8V28c0-2.2-1.8-4-4-4H108V14H14.1v91.5h93.8v-10h1.5c1.1 0 2.1-.4 2.9-1.2.8-.8 1.2-1.8 1.2-2.8V79.4c0-2.2-1.8-4-4-4H108V44.1h1.4zm0-4h-7.1V28h7.1v12.1zm0 51.4h-7.1V79.4h7.1v12.1zm-5.5-16.1h-1.5c-2.2 0-4 1.8-4 4v12.1c0 1.1.4 2.1 1.2 2.8.8.8 1.8 1.2 2.9 1.2h1.5v6H18.1V18h85.7v6h-1.5c-2.2 0-4 1.8-4 4v12.1c0 1.1.4 2.1 1.2 2.8.8.8 1.8 1.2 2.9 1.2h1.5v31.3z"/></g></svg>