<svg xmlns="http://www.w3.org/2000/svg" width="138" height="100" viewBox="0 0 138 100"><g fill="#999"><path d="M124.6 1H29.4C22.6 1 17 6.6 17 13.6v3.6h-3.6C6.6 17.2 1 22.8 1 29.7v56.7C1 93.4 6.6 99 13.4 99h96.2c6.8 0 12.4-5.6 12.4-12.6v-3.6h2.6c6.8 0 12.4-5.6 12.4-12.6V13.6c0-7-5.6-12.6-12.4-12.6zM116 86.4c0 3.6-2.9 6.5-6.4 6.5H13.4C9.9 92.9 7 90 7 86.4V29.7c0-3.6 2.9-6.5 6.4-6.5h96.2c3.5 0 6.4 2.9 6.4 6.5v56.7zm15-16.1c0 3.6-2.9 6.5-6.4 6.5H122v-47c0-6.9-5.6-12.6-12.4-12.6H23v-3.6c0-3.6 2.9-6.5 6.4-6.5h95.2c3.5 0 6.4 2.9 6.4 6.5v56.7z"/><path d="M73.9 68.4h32.6v4.9H73.9zM17.2 80.1h19.6v6.6H17.2zm0-21.5h19.6v6.6H17.2zm23.2 21.5H60v6.6H40.4zm23.2 0h19.6v6.6H63.6zm23.3 0h19.6v6.6H86.9zm-13-14.7h32.6V32.5H73.9v32.9zm10.9-24.7c2 0 3.9.8 5.3 2 1.4-1.3 3.3-2 5.3-2 4.5 0 8.1 3.7 8.1 8.2s-3.6 8.2-8.1 8.2c-2 0-3.9-.8-5.3-2-1.4 1.3-3.3 2-5.3 2-4.5 0-8.1-3.7-8.1-8.2s3.7-8.2 8.1-8.2z"/></g></svg>