<?xml version="1.0" encoding="utf-8"?>
<!-- Generator: Adobe Illustrator 18.1.1, SVG Export Plug-In . SVG Version: 6.00 Build 0)  -->
<svg version="1.1" id="Layer_1" xmlns="http://www.w3.org/2000/svg" xmlns:xlink="http://www.w3.org/1999/xlink" x="0px" y="0px"
	 width="138px" height="100px" viewBox="0 0 138 100" enable-background="new 0 0 138 100" xml:space="preserve">
<g>
	<path fill="#999999" d="M124.6,1H29.4C22.6,1,17,6.6,17,13.6v3.6h-3.6C6.6,17.2,1,22.8,1,29.7v56.7C1,93.4,6.6,99,13.4,99h96.2
		c6.8,0,12.4-5.6,12.4-12.6v-3.6h2.6c6.8,0,12.4-5.6,12.4-12.6V13.6C137,6.6,131.4,1,124.6,1z M116,86.4c0,3.6-2.9,6.5-6.4,6.5H13.4
		C9.9,92.9,7,90,7,86.4V29.7c0-3.6,2.9-6.5,6.4-6.5h96.2c3.5,0,6.4,2.9,6.4,6.5C116,29.7,116,86.4,116,86.4z M131,70.3
		c0,3.6-2.9,6.5-6.4,6.5H122v-47c0-6.9-5.6-12.6-12.4-12.6H23v-3.6c0-3.6,2.9-6.5,6.4-6.5h95.2c3.5,0,6.4,2.9,6.4,6.5V70.3z"/>
	<rect x="73.9" y="68.4" fill="#999999" width="32.6" height="4.9"/>
	<rect x="17.2" y="80.1" fill="#999999" width="19.6" height="6.6"/>
	<rect x="17.2" y="58.6" fill="#999999" width="19.6" height="6.6"/>
	<rect x="40.4" y="80.1" fill="#999999" width="19.6" height="6.6"/>
	<rect x="63.6" y="80.1" fill="#999999" width="19.6" height="6.6"/>
	<rect x="86.9" y="80.1" fill="#999999" width="19.6" height="6.6"/>
	<path fill="#999999" d="M73.9,65.4h32.6V32.5H73.9V65.4z M84.8,40.7c2,0,3.9,0.8,5.3,2c1.4-1.3,3.3-2,5.3-2c4.5,0,8.1,3.7,8.1,8.2
		s-3.6,8.2-8.1,8.2c-2,0-3.9-0.8-5.3-2c-1.4,1.3-3.3,2-5.3,2c-4.5,0-8.1-3.7-8.1-8.2S80.4,40.7,84.8,40.7z"/>
</g>
</svg>
