<svg xmlns="http://www.w3.org/2000/svg" width="66" height="58" viewBox="0 0 66 58"><path d="M33 1L1 20.1h64L33 1zm0 3.2l21.9 13H11.1L33 4.2zm-9.9 20.3c.5 0 .9-.4.9-.9s-.4-.9-.9-.9h-9.9c-.5 0-.9.4-.9.9s.4.9.9.9h1.9v20.3h-1.9c-.5 0-.9.4-.9.9s.4.9.9.9h9.9c.5 0 .9-.4.9-.9s-.4-.9-.9-.9h-1.9V24.5h1.9zm-3.8 20.2h-2.4V24.5h2.4v20.2zM38 24.5c.5 0 .9-.4.9-.9s-.4-.9-.9-.9h-9.9c-.5 0-.9.4-.9.9s.4.9.9.9H30v20.3h-1.9c-.5 0-.9.4-.9.9s.4.9.9.9H38c.5 0 .9-.4.9-.9s-.4-.9-.9-.9h-1.9V24.5H38zm-3.8 20.2h-2.4V24.5h2.4v20.2zm18.6-20.2c.5 0 .9-.4.9-.9s-.4-.9-.9-.9h-9.9c-.5 0-.9.4-.9.9s.4.9.9.9h1.9v20.3h-1.9c-.5 0-.9.4-.9.9s.4.9.9.9h9.9c.5 0 .9-.4.9-.9s-.4-.9-.9-.9h-1.9V24.5h1.9zm-3.7 20.2h-2.4V24.5h2.4v20.2zm7.8 3.6H9.1v3.4H4.6V57h56.8v-5.3h-4.5v-3.4zM11 50.2h44.1v1.5H11v-1.5zm48.6 3.4v1.5H6.4v-1.5h53.2z" fill="#388A48"/></svg>