<svg width="410" height="234" viewBox="0 0 410 234" xmlns="http://www.w3.org/2000/svg"><title>Slice 1</title><g fill="none" fill-rule="evenodd"><g fill="#21D8DE"><path d="M67.3 144c0 18.6-15.1 33.6-33.6 33.6-18.6 0-33.7-15-33.7-33.6s15.1-33.6 33.6-33.6c18.6 0 33.7 15 33.7 33.6z"/><path d="M65.8 99.6c0 14.3-11.6 25.9-25.9 25.9-14.3 0-25.9-11.6-25.9-25.9 0-14.3 11.6-25.9 25.9-25.9 14.3 0 25.9 11.6 25.9 25.9z"/><path d="M99 88.3c0 14.8-12 26.9-26.9 26.9-14.8 0-26.9-12-26.9-26.9 0-14.9 12-26.9 26.9-26.9C87 61.4 99 73.4 99 88.3z"/><path d="M112.6 137.2c0 22.4-18.1 40.5-40.5 40.5s-40.5-18.1-40.5-40.5 18.1-40.5 40.5-40.5 40.5 18.1 40.5 40.5z"/></g><g fill="#FFF"><path d="M51.1 114.2h2.6v119.3h-2.6z"/><path d="M53.5 146.4l-1.9 1.8L29.4 126l1.9-1.8 22.2 22.2zm-.3-11l-1.9-1.8 9.3-9.3 1.9 1.8-9.3 9.3zm0 29.8l-1.9-1.9 15.8-15.7 1.8 1.8-15.7 15.8z"/></g><path fill="#D9D8D7" d="M81.6 205.3h246.8v14.1H81.6z"/><path fill="#FFF" d="M72.8 219.4h264.4v14.1H72.8zm0-133.7h264.4v14.1H72.8zm26 14.1h19.4v105.5H98.8z"/><path fill="#D9D8D7" d="M94.4 99.8h28.2V114H94.4z"/><path fill="#FFF" d="M163.1 99.8h19.4v105.5h-19.4z"/><path fill="#D9D8D7" d="M158.7 99.8h28.2V114h-28.2z"/><path fill="#FFF" d="M227.5 99.8h19.4v105.5h-19.4z"/><path fill="#D9D8D7" d="M223.1 99.8h28.2V114h-28.2z"/><path fill="#FFF" d="M291.8 99.8h19.4v105.5h-19.4z"/><path fill="#D9D8D7" d="M287.4 99.8h28.2V114h-28.2zM205 .5L81.6 85.7h246.8L205 .5z"/><path d="M122.8 72.8L205 16.1l82.2 56.7H122.8z" fill="#FFF"/><path d="M205 66.3c-9.2 0-16.7-7.5-16.7-16.7s7.5-16.7 16.7-16.7 16.7 7.5 16.7 16.7-7.5 16.7-16.7 16.7zm0-25.7c-5 0-9 4-9 9s4 9 9 9 9-4 9-9c0-4.9-4-9-9-9z" fill="#D9D8D7"/><g fill="#21D8DE"><path d="M377.4 171.7c0 13.2-10.7 24-24 24-13.2 0-24-10.7-24-24 0-13.2 10.7-24 24-24 13.3.1 24 10.8 24 24z"/><path d="M374.7 136.7c0 10.2-8.3 18.5-18.5 18.5s-18.4-8.3-18.4-18.5 8.3-18.5 18.4-18.5c10.2 0 18.5 8.3 18.5 18.5z"/><path d="M395.3 139.2c0 8-6.5 14.5-14.5 14.5s-14.5-6.5-14.5-14.5 6.5-14.5 14.5-14.5 14.5 6.5 14.5 14.5z"/><path d="M410 171.8c0 14.8-12 26.8-26.8 26.8s-26.9-12-26.9-26.8 12-26.8 26.9-26.8c14.8 0 26.8 12 26.8 26.8z"/></g><g fill="#FFF"><path d="M366.7 151.3h2.5v82.2h-2.5z"/><path d="M368.9 164.9l-1.7 1.7-4.7-4.7 1.7-1.7 4.7 4.7zm-15.98.125l1.77-1.767 14.208 14.217-1.768 1.767zm15.936 22.19l-1.766-1.77 11.958-11.94 1.767 1.77z"/></g><g transform="translate(40 200)" fill="#21D8DE"><path d="M13.2 20.6h35.6v12.8H13.2z"/><path d="M25.7 21c0 6.9-5.6 12.5-12.5 12.5S.7 27.9.7 21 6.3 8.5 13.2 8.5 25.7 14.1 25.7 21zm30.4 5.3c0 4-3.2 7.2-7.2 7.2s-7.2-3.2-7.2-7.2 3.2-7.2 7.2-7.2c4-.1 7.2 3.2 7.2 7.2z"/><circle cx="31.4" cy="17.1" r="16.4"/></g></g></svg>