<svg width="250" height="214" viewBox="0 0 250 214" xmlns="http://www.w3.org/2000/svg"><title>Slice 1</title><g fill="none" fill-rule="evenodd"><path d="M199 .4h-21v21.1h42.1C220.1 9.9 210.7.4 199 .4z" fill="#CCCBCA"/><path d="M199.1.4C187.5.4 178 9.8 178 21.5v170.9c0 11.7-9.4 21.1-21.1 21.1H42.2v-192C42.2 9.9 51.6.4 63.3.4h135.8z" fill="#FFF"/><path d="M135.8 192.5H0c0 11.7 9.4 21.1 21.1 21.1h135.8c-11.7 0-21.1-9.5-21.1-21.1z" fill="#CCCBCA"/><path fill="#FF6D3B" d="M55.5 75.4h4.3v34.1h-4.3z"/><path fill="#242D3C" d="M61.9 62.2h4.2v47.3h-4.2z"/><path fill="#FFD55C" d="M68.3 79.8h4.3v29.7h-4.3z"/><path fill="#CCCBCA" d="M74.6 70.1h4.3v39.4h-4.3z"/><path fill="#FF6D3B" d="M84.1 99.8h4.3v9.7h-4.3z"/><path fill="#242D3C" d="M90.5 87.4h4.3v22.1h-4.3z"/><path fill="#FFD55C" d="M96.8 91.5h4.3v18h-4.3z"/><path fill="#CCCBCA" d="M103.2 76.9h4.3v32.6h-4.3z"/><path fill="#FF6D3B" d="M112.7 97.9h4.3v11.6h-4.3z"/><path fill="#242D3C" d="M119.1 100h4.3v9.5h-4.3z"/><path fill="#FFD55C" d="M125.4 82.4h4.3v27.1h-4.3z"/><path fill="#CCCBCA" d="M131.8 90.7h4.2v18.8h-4.2z"/><path fill="#FF6D3B" d="M141.3 66h4.3v43.5h-4.3z"/><path fill="#242D3C" d="M147.6 79.7h4.3v29.8h-4.3z"/><path fill="#FFD55C" d="M154 92.9h4.3v16.6H154z"/><path fill="#CCCBCA" d="M160.3 72.8h4.3v36.7h-4.3z"/><path d="M55.5 162h109v3.1h-109zm0 7.8h109v3.1h-109zm0 7.8H110v3.1H55.5z" fill="#E6E5E5"/><path fill="#242D3C" d="M55.5 35.6h109v3.1h-109z"/><path fill="#FF6D3B" d="M55.5 21.5h109v9.4h-109z"/><path fill="#E6E5E5" d="M55.5 43.4h109v3.1h-109zm0 7.8H110v3.1H55.5zm0 80.2h51.7v22.7H55.5zm57.4 0h51.7v22.7h-51.7z"/><path fill="#CCCBCA" d="M55.5 117.3h6.3v6.3h-6.3z"/><path fill="#E6E5E5" d="M65 120.5h14.1v3.1H65z"/><path fill="#FF6D3B" d="M84.1 117.3h6.3v6.3h-6.3z"/><path fill="#E6E5E5" d="M93.5 120.5h14.1v3.1H93.5z"/><path fill="#FFD55C" d="M112.6 117.3h6.3v6.3h-6.3z"/><path fill="#E6E5E5" d="M122 120.5h14.1v3.1H122z"/><path fill="#242D3C" d="M141.1 117.3h6.3v6.3h-6.3z"/><path fill="#E6E5E5" d="M150.5 120.5h14.1v3.1h-14.1z"/><g><path d="M199.4 166v5.1c0 2.9-1.1 5.6-3.1 7.6s-4.7 3.1-7.6 3.1c-2.9 0-5.6-1.1-7.6-3.1s-3.1-4.7-3.1-7.6V121c0-2.9 1.1-5.6 3.1-7.6s4.7-3.1 7.6-3.1H206V96.8h-17.3c-6.5 0-12.5 2.5-17.1 7.1-4.6 4.6-7.1 10.6-7.1 17.1v50.2c0 6.5 2.5 12.5 7.1 17.1 4.6 4.6 10.6 7.1 17.1 7.1 6.5 0 12.5-2.5 17.1-7.1 4.6-4.6 7.1-10.6 7.1-17.1V166h-13.5z" fill="#3E4959"/><path fill="#3E4959" d="M206 84.3h24.9v38.4H206z"/><path d="M227.2 80.8h-17.5l-3.7 3.5h24.9l-3.7-3.5z" fill="#131A26"/><path fill="#3E4959" d="M209.7 68.4h17.5v12.5h-17.5z"/><path fill="#131A26" d="M206 62.4h24.9v6H206z"/><path d="M241.4 144.6l-8.1 8.1-10.8-10.8c-1-1-1.7-2.5-1.7-4.1 0-1.6.6-3 1.7-4.1 1-1 2.5-1.7 4.1-1.7 1.6 0 3 .6 4.1 1.7l10.7 10.9z" fill="#3E4959"/><path d="M241.4 148.7l-4 4.1h-4.1l8.1-8.2v4.1z" fill="#131A26"/><path fill="#3E4959" d="M195.4 122.7h46v4.9h-46z"/><path d="M199.6 127.6c0 10.4 8.4 18.8 18.8 18.8s18.8-8.4 18.8-18.8h-37.6z" fill="#131A26"/><path d="M224.3 153.1h-11.5v-15.3c0-1.5.6-2.9 1.7-4.1 1.1-1.1 2.6-1.7 4.1-1.7 1.5 0 2.9.6 4.1 1.7 1.1 1.1 1.7 2.6 1.7 4.1v15.3h-.1z" fill="#3E4959"/><path d="M221.5 157h-5.8l-2.8-3.9h11.4l-2.8 3.9z" fill="#131A26"/><g transform="translate(195 92)"><circle fill="#131A26" cx="11" cy="11.5" r="10.6"/><path d="M15.2 11.5c0 2.4-1.9 4.3-4.3 4.3s-4.3-1.9-4.3-4.3 1.9-4.3 4.3-4.3 4.3 2 4.3 4.3z" fill="#3E4959"/></g><g fill="#131A26"><path d="M195.4 161.2h46v4.9h-46z"/><path d="M209.6 166c0 1.9-1.6 3.5-3.5 3.5s-3.5-1.6-3.5-3.5 1.6-3.5 3.5-3.5c2 .1 3.5 1.6 3.5 3.5z"/></g><path d="M195.4 198.3h-13.5v-9.7c0-1.7.7-3.4 2-4.8 1.3-1.3 3-2 4.8-2 1.7 0 3.4.7 4.8 2 1.3 1.3 2 3 2 4.8v9.7h-.1z" fill="#131A26"/><path d="M191.7 188.6c0 1.7-1.3 3-3 3s-3-1.3-3-3c0-1.6 1.3-3 3-3 1.6 0 3 1.3 3 3z" fill="#3E4959"/><path fill="#131A26" d="M178 198.3h21.4v2.5H178z"/><path d="M160.5 200.8c-1.2 0-2.3.4-3.2 1.3-.9.9-1.3 2-1.3 3.2v5.7h94v-5.7c0-1.2-.4-2.3-1.3-3.2-.9-.9-2-1.3-3.2-1.3h-85z" fill="#3E4959"/><path fill="#131A26" d="M155.9 211.1h24.9v2.5h-24.9zm69.2 0H250v2.5h-24.9z"/></g></g></svg>