<svg width="250" height="250" viewBox="0 0 250 250" xmlns="http://www.w3.org/2000/svg" xmlns:xlink="http://www.w3.org/1999/xlink"><title>Slice 1</title><defs><path id="a" d="M250 125c0 69-56 125-125 125S0 194 0 125 56 0 125 0s125 56 125 125z"/></defs><g fill="none" fill-rule="evenodd"><path d="M123.4 16.9h3.2v11.9h-3.2zM101 19.6l3.1-.7 2.4 11.6-3.1.7-2.4-11.6zm-21.4 7.3l2.9-1.3 4.8 10.8-2.9 1.3-4.8-10.8zM60.2 38.5l2.5-1.9 7 9.6-2.6 1.9-6.9-9.6zM43.6 53.8l2.1-2.3 8.8 7.9-2.1 2.4-8.8-8zm-13 18.5l1.6-2.7 10.2 5.9-1.6 2.8-10.2-6zm-8.9 20.8l1-3 11.2 3.6-.9 3.1-11.3-3.7zm-4.4 22.2l.3-3.2 11.8 1.3-.3 3.1-11.8-1.2zm0 19.4l11.8-1.2.3 3.1-11.8 1.3-.3-3.2zm4.4 22.2l11.3-3.7.9 3.1-11.2 3.6-1-3zm8.9 20.8l10.2-5.9 1.6 2.7-10.2 5.9-1.6-2.7zm13 18.5l8.8-8 2.1 2.4-8.8 7.9-2.1-2.3zm16.6 15.3l6.9-9.5 2.6 1.8-7 9.6-2.5-1.9zm19.4 11.6l4.8-10.8 2.9 1.3-4.8 10.8-2.9-1.3zm83.1-9.5l2.9-1.3 4.8 10.8-2.9 1.3-4.8-10.8zm17.6-9.8l2.6-1.8 6.9 9.5-2.5 1.9-7-9.6zm15.2-13.2l2.1-2.4 8.8 8-2.1 2.3-8.8-7.9zm23.916-12.917l-1.598 2.772-10.31-5.942 1.598-2.773zM216.1 156.3l.9-3 11.3 3.6-1 3-11.2-3.6zm4.5-19.6l.3-3.2 11.8 1.2-.3 3.2-11.8-1.2zm0-23.3l11.8-1.3.3 3.2-11.8 1.2-.3-3.1zm-4.5-19.7l11.2-3.6 1 3-11.2 3.7-1-3.1zm-8.5-18.2l10.2-5.9 1.6 2.7-10.2 6-1.6-2.8zm-12.1-16.1l8.8-7.9 2.1 2.3-8.8 8-2.1-2.4zm-15.2-13.2l7-9.6 2.5 1.9-6.9 9.6-2.6-1.9zm-17.6-9.8l4.8-10.8 2.9 1.3-4.8 10.8-2.9-1.3zm-19.2-5.9l2.4-11.6 3.1.7-2.4 11.6-3.1-.7z" fill="#353F49"/><mask id="b" fill="#fff"><use xlink:href="#a"/></mask><g mask="url(#b)"><path fill="#474F59" d="M117.1 188.9h15.7v16.9h-15.7z"/><path d="M190.4 125c0 36.1-29.3 65.4-65.4 65.4-36.1 0-65.4-29.3-65.4-65.4 0-36.1 29.3-65.4 65.4-65.4 36.1 0 65.4 29.3 65.4 65.4z" fill="#353F49"/><path d="M177.3 125c0 28.9-23.4 52.3-52.3 52.3S72.7 153.9 72.7 125 96.1 72.7 125 72.7s52.3 23.4 52.3 52.3z" fill="#FFF"/><path fill="#474F59" d="M112.6 218.9h24.8v56.9h-24.8z"/><path fill="#353F49" d="M110.6 205.8h28.9v13.1h-28.9z"/></g><path d="M163.5 125c0 21.2-17.2 38.4-38.5 38.4-21.2 0-38.5-17.2-38.5-38.4s17.2-38.5 38.5-38.5c21.2 0 38.5 17.3 38.5 38.5z" fill="#FAB83E"/><path d="M155.8 125c0 17-13.8 30.8-30.8 30.8S94.2 142 94.2 125 108 94.2 125 94.2c17 .1 30.8 13.8 30.8 30.8z" fill="#FFDB79"/><g fill="#FAB83E"><path d="M128.2 127.6h-6.5c-2.7 0-5.2-1.1-7.1-3-1.9-1.9-2.9-4.4-2.9-7.1 0-2.7 1-5.2 3-7.1 1.9-1.9 4.4-2.9 7.1-2.9h14v5.1h-14c-1.4 0-2.6.5-3.5 1.4-1 .9-1.5 2.2-1.5 3.5 0 1.3.5 2.6 1.4 3.5 1 1 2.2 1.5 3.5 1.5h6.5v5.1z"/><path d="M128.2 142.6h-14v-5.1h14c1.3 0 2.6-.5 3.5-1.5.9-.9 1.5-2.2 1.5-3.5 0-1.4-.5-2.6-1.5-3.5-1-1-2.2-1.5-3.5-1.5h-6.5v-5.1h6.5c2.7 0 5.2 1.1 7.1 3 1.9 1.9 2.9 4.4 2.9 7.1 0 2.7-1 5.2-3 7.1-1.8 2-4.3 3-7 3z"/><path d="M122.5 105.6h5.1v38.7h-5.1z"/></g></g></svg>