<svg width="248" height="249" viewBox="0 0 248 249" xmlns="http://www.w3.org/2000/svg"><title>Slice 1</title><g fill="none" fill-rule="evenodd"><path d="M230.8.9c-9.5 0-17.2 7.7-17.2 17.2H248C248 8.6 240.3.9 230.8.9z" fill="#CCCBCA"/><path d="M120.2.9C110.7.9 103 8.6 103 18.1v139.3h93.4c9.5 0 17.2-7.7 17.2-17.2V18.1c0-9.5 7.7-17.2 17.2-17.2H120.2z" fill="#F2F2F2"/><path d="M162.1 92.5c-9.5 0-17.2 7.7-17.2 17.2v122.1c0 9.5-7.7 17.2-17.2 17.2H34.4V109.6c0-9.5 7.7-17.2 17.2-17.2l110.5.1z" fill="#FFF"/><path d="M179.3 140.2v-30.5c0-9.5-7.7-17.2-17.2-17.2s-17.2 7.7-17.2 17.2v47.7h51.5c-9.4-.1-17.1-7.8-17.1-17.2zM34.4 231.7v17.2H17.2c9.5 0 17.2-7.7 17.2-17.2z" fill="#CCCBCA"/><path d="M110.6 231.7H0c0 9.5 7.7 17.2 17.2 17.2h110.6c-9.5 0-17.2-7.7-17.2-17.2z" fill="#CCCBCA"/><path fill="#242D3C" d="M46.7 109.6h85.8v3.8H46.7z"/><path fill="#E6E5E5" d="M46.7 117.3h42.9v3.8H46.7zm0 87.5h85.8v3.8H46.7zm0 7.6h85.8v3.8H46.7zm0 7.7h42.9v3.8H46.7z"/><path d="M95.6 183.2c-5.2 5.2-12.3 8.4-20.2 8.4-15.8 0-28.6-12.8-28.6-28.6 0-11.9 7.3-22.2 17.7-26.4l10.8 26.3 20.3 20.3z" fill="#242D3C"/><path d="M104 162.9H75.3v-28.6c15.8 0 28.7 12.8 28.7 28.6z" fill="#FF6D3B"/><path d="M104 162.9c0 7.9-3.2 15.1-8.4 20.2l-20.3-20.2H104z" fill="#E6E5E5"/><path d="M75.3 134.3v28.6l-10.9-26.4c3.4-1.4 7.1-2.2 10.9-2.2z" fill="#FFD55C"/><path fill="#FF6D3B" d="M110.8 134.3h6.7v6.7h-6.7z"/><path fill="#E6E5E5" d="M110.8 151.2h6.7v6.7h-6.7z"/><path fill="#242D3C" d="M110.8 168h6.7v6.7h-6.7z"/><path fill="#FFD55C" d="M110.8 184.9h6.7v6.7h-6.7z"/><path d="M122 137.2h10.6v3.8H122zm0 16.8h10.6v3.8H122zm0 16.9h10.6v3.8H122zm0 16.8h10.6v3.8H122z" fill="#E6E5E5"/><path fill="#242D3C" d="M115.4 55h12.3v10.3h-12.3z"/><path fill="#CCCBCA" d="M133.8 40.2h12.3v25.1h-12.3zm18.4 8.3h12.3v16.8h-12.3z"/><path fill="#FF6D3B" d="M170.6 18.1h12.3v47.2h-12.3z"/><path fill="#CCCBCA" d="M189 35h12.3v30.3H189zm-73.6 38.2h85.8V77h-85.8zm0 7.6h85.8v3.8h-85.8zm0-62.7h30.7v11.4h-30.7z"/><path fill="#FFF" d="M119.2 21.9h23v3.8h-23z"/><path d="M140 35.7l-6.2-6.2h6.2v6.2z" fill="#CCCBCA"/></g></svg>