<svg width="251" height="192" viewBox="0 0 251 192" xmlns="http://www.w3.org/2000/svg"><title>Slice 1</title><defs><path id="a" d="M61 31.2c0 16.7-13.6 30.3-30.3 30.3C14 61.5.4 48 .4 31.2.4 14.5 14 .9 30.7.9 47.4 1 61 14.5 61 31.2z"/></defs><g fill="none" fill-rule="evenodd"><path d="M173.4 188.2h-59l3.2-28.3h52.6l3.2 28.3z" fill="#CCCBCA"/><path d="M185.2 191.5h-82.5v-1.4c0-.5.2-1 .6-1.3.4-.4.8-.6 1.3-.6h78.7c.5 0 1 .2 1.3.6.4.4.6.9.6 1.3v1.4zM250 155.2c0 1.2-.5 2.4-1.4 3.3-.9.9-2.1 1.4-3.3 1.4H42.5c-1.2 0-2.4-.5-3.3-1.4-.9-.9-1.4-2.1-1.4-3.3v-14.1H250v14.1z" fill="#E6E5E5"/><path d="M250 5.2c0-1.2-.5-2.4-1.4-3.3-.9-.9-2.1-1.4-3.3-1.4H42.5c-1.2 0-2.4.5-3.3 1.4-.9.9-1.4 2.1-1.4 3.3V141H250V5.2z" fill="#353F49"/><path fill="#FFF" d="M48.4 11.1h190.9v119.3H48.4z"/><g><path fill="#FF916E" d="M62 99.5h13.7v19.7H62z"/><path fill="#F77B55" d="M75.7 65.5h13.6v53.8H75.7z"/><path fill="#EE643C" d="M89.3 83.4H103v35.9H89.3z"/><path fill="#FF916E" d="M103 75.6h13.7v43.6H103z"/><path fill="#F77B55" d="M116.6 89.7h13.7v29.6h-13.7z"/><path fill="#EE643C" d="M130.3 54.1H144v65.1h-13.7z"/><path fill="#FF916E" d="M143.9 76.8h13.6v42.4h-13.6z"/><path fill="#F77B55" d="M157.6 81h13.7v38.2h-13.7z"/><path fill="#EE643C" d="M171.2 65.5h13.7v53.8h-13.7z"/><path fill="#FF916E" d="M184.9 48.1h13.6v71.1h-13.6z"/><path fill="#F77B55" d="M198.5 40.4h13.7v78.9h-13.7z"/><path fill="#EE643C" d="M212.2 58.6h13.7v60.7h-13.7z"/><g><path fill="#EE643C" d="M130.3 25.1h7.4v7.4h-7.4z"/><path fill="#E6E5E5" d="M141.4 28.8h16.8v3.7h-16.8z"/><path fill="#FF916E" d="M164.1 25.1h7.4v7.4h-7.4z"/><path fill="#E6E5E5" d="M175.3 28.8h16.8v3.7h-16.8z"/><g><path fill="#F77B55" d="M197.9 25.1h7.4v7.4h-7.4z"/><path fill="#E6E5E5" d="M209.1 28.8h16.8v3.7h-16.8z"/></g></g><g><path fill="#353F49" d="M62 18.9h54.6v13.6H62z"/><path fill="#FFF" d="M68.2 24h21.1v3.7H68.2z"/></g><g fill="#E6E5E5"><path d="M62 36.2h54.6v3.7H62zM62 43.7h27.3v3.7H62z"/></g></g><g><path fill="#474F59" d="M187.2 141.2h9.1v11.1h-9.1z"/><path d="M229.5 104.2c0 20.9-16.9 37.8-37.8 37.8s-37.8-16.9-37.8-37.8 16.9-37.8 37.8-37.8 37.8 16.9 37.8 37.8z" fill="#353F49"/><path d="M222 104.2c0 16.7-13.6 30.3-30.3 30.3-16.7 0-30.3-13.5-30.3-30.3 0-16.7 13.6-30.3 30.3-30.3 16.7.1 30.3 13.6 30.3 30.3z" fill="#FFF"/><path fill="#474F59" d="M184.5 159.9h14.3v31.6h-14.3z"/><path fill="#353F49" d="M183.3 152.3H200v7.6h-16.7z"/><path d="M222 104.2c0 16.7-13.6 30.3-30.3 30.3-16.7 0-30.3-13.5-30.3-30.3 0-16.7 13.6-30.3 30.3-30.3 16.7.1 30.3 13.6 30.3 30.3z" id="b" fill="#FFF"/><g mask="url(#b)" transform="translate(161 73)"><path fill="#EE643C" d="M.4 46.9h20.2v79.5H.4z"/><path fill="#FF916E" d="M20.6 21.3h20.2v105.1H20.6z"/><path fill="#F77B55" d="M40.8 9.8H61v116.6H40.8z"/></g></g><g><path d="M0 85.8c0-2.3 1.8-4.1 4.1-4.1h67.4c2.3 0 4.1 1.9 4.1 4.1v101.6c0 2.3-1.9 4.1-4.1 4.1H4.1c-2.3 0-4.1-1.8-4.1-4.1V85.8z" fill="#353F49"/><path d="M33.7 186.9c-1 0-1.8-.8-1.8-1.8v-.5c0-1 .8-1.8 1.8-1.8H42c1 0 1.8.8 1.8 1.8v.5c0 1-.8 1.8-1.8 1.8h-8.3zM37.8 89c-1 0-1.9-.8-1.9-1.9 0-1 .8-1.9 1.9-1.9 1 0 1.9.9 1.9 1.9 0 1-.8 1.9-1.9 1.9z" fill="#474F59"/><path d="M37.8 87.9c-.4 0-.8-.4-.8-.8s.3-.8.8-.8c.4 0 .8.3.8.8 0 .4-.3.8-.8.8z" fill="#353F49"/><path fill="#FFF" d="M4.3 92.5h67.1v85.8H4.3z"/><path fill="#E6E5E5" d="M13.4 163h48.9v1.7H13.4z"/><path fill="#CCCBCA" d="M13.4 155.3h48.9v5.9H13.4z"/><path fill="#E6E5E5" d="M13.4 166.3h48.9v1.7H13.4zM13.4 169.7h24.5v1.7H13.4z"/><g><path d="M50.6 126.6c0 3.5-1.4 6.7-3.7 9l6.5 6.5c4-4 6.4-9.5 6.4-15.5h-9.2z" fill="#E6E5E5"/><path d="M46.9 135.6c-2.3 2.3-5.5 3.7-9 3.7-7.1 0-12.8-5.7-12.8-12.8 0-5.3 3.3-9.9 7.9-11.8l-3.5-8.4c-7.9 3.3-13.5 11.1-13.5 20.3 0 12.1 9.8 21.9 21.9 21.9 6.1 0 11.5-2.4 15.5-6.4l-6.5-6.5z" fill="#F77B55"/><path d="M37.8 113.8v-9.1c-3 0-5.8.6-8.4 1.7l3.5 8.4c1.5-.7 3.2-1 4.9-1z" fill="#656A73"/><path d="M37.8 113.8c7.1 0 12.8 5.7 12.8 12.8h9.1c0-12.1-9.8-21.9-21.9-21.9v9.1z" fill="#353F49"/></g></g></g></svg>