<svg xmlns="http://www.w3.org/2000/svg" xmlns:xlink="http://www.w3.org/1999/xlink" width="328" height="250" viewBox="0 0 328 250"><path fill="#CCCBCA" d="M227.5 245.7h-77.4l4.3-37h68.9z"/><path fill="#FFF" d="M242.9 250H134.7v-1.8c0-.6.2-1.3.7-1.8.5-.5 1.1-.7 1.8-.7h103.3c.6 0 1.3.3 1.7.7.5.5.7 1.1.7 1.8v1.8zM328 202.5c0 1.6-.6 3.2-1.8 4.4-1.2 1.2-2.8 1.8-4.4 1.8h-266c-1.6 0-3.2-.6-4.4-1.8-1.2-1.2-1.8-2.8-1.8-4.4V184H328v18.5z"/><path fill="#242D3C" d="M328 6.2c0-1.6-.6-3.2-1.8-4.4C325 .6 323.4 0 321.8 0h-266c-1.6 0-3.2.6-4.4 1.8s-1.8 2.8-1.8 4.4V184H328V6.2z"/><path fill="#FFF" d="M63.6 13.9h250.5v156.2H63.6z"/><g><path fill="#FF6D3B" d="M81.3 129.6h17.9v25.8H81.3z"/><path fill="#F15424" d="M99.3 85h17.9v70.4H99.3z"/><path fill="#E64717" d="M117.2 108.5h17.9v46.9h-17.9z"/><path fill="#FF6D3B" d="M135.1 98.4H153v57.1h-17.9z"/><path fill="#F15424" d="M153 116.7h17.9v38.7H153z"/><path fill="#E64717" d="M170.9 70.1h17.9v85.3h-17.9z"/><path fill="#FF6D3B" d="M188.8 99.9h17.9v55.6h-17.9z"/><path fill="#F15424" d="M206.7 105.3h17.9v50.1h-17.9z"/><path fill="#E64717" d="M224.7 85h17.9v70.4h-17.9z"/><path fill="#FF6D3B" d="M242.6 62.4h17.9v93.1h-17.9z"/><path fill="#F15424" d="M260.5 52.2h17.9v103.3h-17.9z"/><path fill="#E64717" d="M278.4 76h17.9v79.4h-17.9z"/><g><path fill="#E64717" d="M170.9 32.2h9.8V42h-9.8z"/><path fill="#E6E5E5" d="M185.5 37h22v4.9h-22z"/><path fill="#FF6D3B" d="M215.3 32.2h9.8V42h-9.8z"/><path fill="#E6E5E5" d="M229.9 37h22v4.9h-22z"/><g><path fill="#F15424" d="M259.7 32.2h9.8V42h-9.8z"/><path fill="#E6E5E5" d="M274.3 37h22v4.9h-22z"/></g></g><g><path fill="#242D3C" d="M81.3 24H153v17.9H81.3z"/><path fill="#FFF" d="M89.5 30.8h27.6v4.9H89.5z"/></g><g fill="#E6E5E5"><path d="M81.3 46.8H153v4.9H81.3zM81.3 56.6h35.8v4.9H81.3z"/></g></g><g><path fill="#3E4959" d="M245.5 184.3h11.9v14.6h-11.9z"/><path fill="#242D3C" d="M301.2 135.8c0 27.3-22.2 49.5-49.6 49.5S202 163.1 202 135.8s22.2-49.5 49.6-49.5c27.3 0 49.6 22.1 49.6 49.5z"/><path fill="#FFF" d="M291.2 135.8c0 21.8-17.8 39.6-39.7 39.6s-39.7-17.8-39.7-39.6 17.8-39.6 39.7-39.6c22 0 39.7 17.7 39.7 39.6z"/><path fill="#3E4959" d="M242.1 208.7h18.8V250h-18.8z"/><path fill="#242D3C" d="M240.6 198.7h21.9v9.9h-21.9z"/><defs><path id="a" d="M291.2 135.8c0 21.8-17.8 39.6-39.7 39.6s-39.7-17.8-39.7-39.6 17.8-39.6 39.7-39.6c22 0 39.7 17.7 39.7 39.6z"/></defs><clipPath id="b"><use xlink:href="#a" overflow="visible"/></clipPath><g clip-path="url(#b)"><path fill="#E64717" d="M211.8 156.2h26.5v104.1h-26.5z"/><path fill="#FF6D3B" d="M238.3 122.7h26.5v137.6h-26.5z"/><path fill="#F15424" d="M264.7 107.7h26.5v152.6h-26.5z"/></g></g><g><path fill="#242D3C" d="M0 111.7c0-3 2.4-5.4 5.4-5.4h88.5c3 0 5.4 2.4 5.4 5.4v132.9c0 3-2.4 5.4-5.4 5.4H5.4c-3 0-5.4-2.4-5.4-5.4V111.7z"/><path fill="#3E4959" d="M44.2 244c-1.3 0-2.4-1.1-2.4-2.4v-.6c0-1.3 1.1-2.4 2.4-2.4h11c1.3 0 2.4 1.1 2.4 2.4v.6c0 1.3-1.1 2.4-2.4 2.4h-11zM49.6 115.8c-1.4 0-2.4-1.1-2.4-2.5 0-1.3 1.1-2.5 2.4-2.5 1.4 0 2.5 1.1 2.5 2.5s-1.1 2.5-2.5 2.5z"/><path fill="#242D3C" d="M49.6 114.3c-.6 0-1-.5-1-1 0-.6.5-1 1-1 .6 0 1 .5 1 1 .1.6-.4 1-1 1z"/><path fill="#FFF" d="M5.6 120.3h88v112.2h-88z"/><path fill="#E6E5E5" d="M17.5 212.6h64.2v2.2H17.5z"/><path fill="#CCCBCA" d="M17.5 202.6h64.2v7.8H17.5z"/><path fill="#E6E5E5" d="M17.5 217.1h64.2v2.2H17.5zM17.5 221.5h32.1v2.2H17.5z"/><g><path fill="#E6E5E5" d="M66.4 165c0 4.6-1.9 8.8-4.9 11.9l8.5 8.5c5.2-5.2 8.4-12.4 8.4-20.3l-12-.1z"/><path fill="#F15424" d="M61.5 176.9c-3 3-7.2 4.9-11.9 4.9-9.3 0-16.8-7.5-16.8-16.8 0-7 4.3-13 10.4-15.5l-4.6-11.1C28.2 142.8 20.8 153 20.8 165c0 15.9 12.9 28.7 28.8 28.7 7.9 0 15.1-3.2 20.3-8.4l-8.4-8.4z"/><path fill="#3E4959" d="M49.6 148.2v-12c-3.9 0-7.6.8-11 2.2l4.6 11.1c2-.8 4.1-1.3 6.4-1.3z"/><path fill="#131A26" d="M49.6 148.2c9.3 0 16.8 7.5 16.8 16.8h12c0-15.9-12.9-28.7-28.8-28.7v11.9z"/></g></g></svg>