<svg xmlns="http://www.w3.org/2000/svg" width="112" height="126" viewBox="0 0 112 126"><g fill="#999"><path d="M52.8 34.7V39c-2.2.2-4.2.7-6 1.3-1.8.6-3.3 1.5-4.5 2.5s-2.2 2.2-2.8 3.6c-.7 1.4-1 3-1 4.8 0 2.2.4 4 1.3 5.4.8 1.4 1.9 2.5 3.3 3.4 1.4.8 2.9 1.5 4.6 1.9s3.4.8 5.1 1v9c-1.4 0-2.7-.1-3.9-.2-1.2-.1-2.3-.3-3.4-.5s-2.1-.5-3.1-.7-2-.6-3.1-1v8c1.6.7 3.5 1.3 5.9 1.7 2.4.4 4.9.6 7.6.7v4h6.5v-4.2c4.5-.5 8-1.7 10.4-3.7s3.7-4.7 3.7-8.2c0-2.2-.4-4-1.3-5.4-.8-1.4-1.9-2.5-3.2-3.4-1.3-.9-2.8-1.5-4.5-2-1.7-.4-3.4-.8-5.1-1.1v-9.1c3.6.2 7.6.9 11.8 2.3V41c-1.7-.6-3.6-1.1-5.7-1.4-2.1-.3-4.1-.6-6.1-.7v-4.1l-6.5-.1c0 .1 0 0 0 0zm0 20.1c-1.8-.3-3.1-.8-4-1.4-.9-.6-1.3-1.5-1.3-2.6 0-1 .4-1.8 1.1-2.5.8-.7 2.1-1.1 4.1-1.3v7.8h.1zm10.4 10.4c.8.6 1.3 1.5 1.3 2.6 0 2.1-1.7 3.3-5.1 3.8v-7.7c1.6.2 2.9.7 3.8 1.3z"/><path d="M110.9 21.4l-.1-1.6-1.4-.8C79.2 1.3 56.9 1 56 1s-23.2.3-53.5 18l-1.4.8-.1 1.6c0 1-.9 22.9 5.2 46.6 8.1 32.1 25.2 51.7 49.2 56.8l.6.2.6-.1c24-5.1 41.1-24.8 49.2-56.8 6.1-23.8 5.2-45.7 5.1-46.7zM56 118.9C7.9 108 6.9 35.2 7 23.3 35.1 7.3 55.8 7 56 7s20.8.3 49 16.3c.1 11.9-.9 84.7-49 95.6z"/><path d="M56.1 14c-1.9.1-18.3 1-41 12.9l-1.1.5v1.2c.2 7.2 1 21.4 4.7 36.2 6.6 26 19 41.7 36.7 46.7l.5.2.5-.2c35.9-10 40.9-61.3 41.4-82.9v-1.2l-1.1-.6C74.3 15 57.9 14 56.1 14zm-.1 93.5c-16-4.7-27.2-19.4-33.4-43.7-3.4-13.5-4.3-26.7-4.6-34C39.2 19 54.7 18 56 18c1.4.1 16.8 1 37.9 11.9-.5 17.3-5 67.9-37.9 77.6z"/></g></svg>