<?xml version="1.0" encoding="utf-8"?>
<!-- Generator: Adobe Illustrator 18.1.1, SVG Export Plug-In . SVG Version: 6.00 Build 0)  -->
<svg version="1.1" id="Layer_1" xmlns="http://www.w3.org/2000/svg" xmlns:xlink="http://www.w3.org/1999/xlink" x="0px" y="0px"
	 width="112px" height="126px" viewBox="0 0 112 126" enable-background="new 0 0 112 126" xml:space="preserve">
<g>
	<path fill="#999999" d="M52.8,34.7V39c-2.2,0.2-4.2,0.7-6,1.3c-1.8,0.6-3.3,1.5-4.5,2.5s-2.2,2.2-2.8,3.6c-0.7,1.4-1,3-1,4.8
		c0,2.2,0.4,4,1.3,5.4c0.8,1.4,1.9,2.5,3.3,3.4c1.4,0.8,2.9,1.5,4.6,1.9s3.4,0.8,5.1,1v9c-1.4,0-2.7-0.1-3.9-0.2
		c-1.2-0.1-2.3-0.3-3.4-0.5c-1.1-0.2-2.1-0.5-3.1-0.7s-2-0.6-3.1-1v8c1.6,0.7,3.5,1.3,5.9,1.7c2.4,0.4,4.9,0.6,7.6,0.7v4h6.5v-4.2
		c4.5-0.5,8-1.7,10.4-3.7s3.7-4.7,3.7-8.2c0-2.2-0.4-4-1.3-5.4c-0.8-1.4-1.9-2.5-3.2-3.4c-1.3-0.9-2.8-1.5-4.5-2
		c-1.7-0.4-3.4-0.8-5.1-1.1v-9.1c3.6,0.2,7.6,0.9,11.8,2.3V41c-1.7-0.6-3.6-1.1-5.7-1.4c-2.1-0.3-4.1-0.6-6.1-0.7v-4.1L52.8,34.7
		C52.8,34.8,52.8,34.7,52.8,34.7z M52.8,54.8c-1.8-0.3-3.1-0.8-4-1.4c-0.9-0.6-1.3-1.5-1.3-2.6c0-1,0.4-1.8,1.1-2.5
		c0.8-0.7,2.1-1.1,4.1-1.3v7.8H52.8z M63.2,65.2c0.8,0.6,1.3,1.5,1.3,2.6c0,2.1-1.7,3.3-5.1,3.8v-7.7C61,64.1,62.3,64.6,63.2,65.2z"
		/>
	<path fill="#999999" d="M110.9,21.4l-0.1-1.6l-1.4-0.8C79.2,1.3,56.9,1,56,1S32.8,1.3,2.5,19l-1.4,0.8L1,21.4
		c0,1-0.9,22.9,5.2,46.6c8.1,32.1,25.2,51.7,49.2,56.8L56,125l0.6-0.1c24-5.1,41.1-24.8,49.2-56.8C111.9,44.3,111,22.4,110.9,21.4z
		 M56,118.9C7.9,108,6.9,35.2,7,23.3C35.1,7.3,55.8,7,56,7s20.8,0.3,49,16.3C105.1,35.2,104.1,108,56,118.9z"/>
	<path fill="#999999" d="M56.1,14L56.1,14L56.1,14c-1.9,0.1-18.3,1-41,12.9L14,27.4v1.2c0.2,7.2,1,21.4,4.7,36.2
		c6.6,26,19,41.7,36.7,46.7l0.5,0.2l0.5-0.2c35.9-10,40.9-61.3,41.4-82.9v-1.2l-1.1-0.6C74.3,15,57.9,14,56.1,14z M56,107.5
		c-16-4.7-27.2-19.4-33.4-43.7c-3.4-13.5-4.3-26.7-4.6-34C39.2,19,54.7,18,56,18c1.4,0.1,16.8,1,37.9,11.9
		C93.4,47.2,88.9,97.8,56,107.5z"/>
</g>
</svg>
