<svg width="251" height="268" viewBox="0 0 251 268" xmlns="http://www.w3.org/2000/svg"><title>Slice 1</title><g fill="none" fill-rule="evenodd"><path fill="#FDCA5C" d="M155.7 257.4h49.4v10.3h-49.4z"/><path fill="#FFDB79" d="M155.7 256.4h49.4v10.3h-49.4z"/><path fill="#FAB83E" d="M148.7 246.1h49.4v10.3h-49.4z"/><path fill="#FDCA5C" d="M148.7 245h49.4v10.3h-49.4zm11-10.3h49.4V245h-49.4z"/><path fill="#FFDB79" d="M159.7 233.7h49.4V244h-49.4z"/><path fill="#FDCA5C" d="M161.3 223.3h49.4v10.3h-49.4z"/><path fill="#FAB83E" d="M161.3 222.3h49.4v10.3h-49.4zm-4.4-10.3h49.4v10.3h-49.4z"/><path fill="#FDCA5C" d="M156.9 211h49.4v10.3h-49.4z"/><path fill="#FAB83E" d="M158.6 200.6H208v10.3h-49.4z"/><path fill="#FDCA5C" d="M158.6 199.6H208v10.3h-49.4z"/><path fill="#FDCA5C" d="M155.7 189.3h49.4v10.3h-49.4z"/><path fill="#FFDB79" d="M155.7 188.2h49.4v10.3h-49.4z"/><path d="M251 242c0 13.6-11.1 24.7-24.7 24.7-13.7 0-24.7-11.1-24.7-24.7 0-13.7 11.1-24.7 24.7-24.7 13.6-.1 24.7 11 24.7 24.7z" fill="#FDCA5C"/><path d="M246 242c0 10.9-8.8 19.8-19.8 19.8-10.9 0-19.8-8.8-19.8-19.8 0-10.9 8.8-19.8 19.8-19.8S246 231 246 242z" fill="#FFDB79"/><g fill="#FDCA5C"><path d="M228.4 243.6h-4.2c-1.7 0-3.4-.7-4.6-1.9-1.2-1.2-1.9-2.8-1.9-4.6 0-1.7.7-3.4 1.9-4.6 1.2-1.2 2.8-1.9 4.6-1.9h9v3.3h-9c-.9 0-1.7.3-2.3.9-.6.6-.9 1.4-.9 2.3 0 .9.3 1.7.9 2.3.6.6 1.4 1 2.3 1h4.2v3.2z"/><path d="M228.4 253.3h-9V250h9c.9 0 1.7-.3 2.3-.9.6-.6.9-1.4.9-2.3 0-.9-.3-1.7-.9-2.3-.6-.6-1.4-1-2.3-1h-4.2v-3.3h4.2c1.7 0 3.4.7 4.6 1.9 1.2 1.2 1.9 2.8 1.9 4.6 0 1.7-.7 3.4-1.9 4.6-1.3 1.3-2.9 2-4.6 2z"/><path d="M224.7 229.5h3.3v24.9h-3.3z"/></g><path fill="#474F59" d="M124.4 15h3.2v208.8h-3.2z"/><path d="M127.8 1c-.5-.5-1.1-.7-1.8-.7-.6 0-1.3.3-1.8.7-.5.5-.8 1.1-.8 1.8V15h5.1V2.8c.1-.7-.2-1.3-.7-1.8zm19.4 266.8c-13.1 0-23.8-10.7-23.8-23.8v-20.2h5.1V244c0 10.3 8.4 18.7 18.7 18.7 10.3 0 18.7-8.4 18.7-18.7 0-1.4 1.1-2.5 2.5-2.5s2.5 1.1 2.5 2.5c.1 13.1-10.6 23.8-23.7 23.8z" fill="#353F49"/><path d="M125.3 23.1c-31 .8-62.1 53.5-62.2 103.7-7.2-6.8-18.6-11.3-31.4-11.3-12.4 0-23.4 4.1-30.7 10.6 11.3-58.5 62.6-102.7 124.3-103z" fill="#E6E5E5"/><path d="M251 126c-7.3-6.5-18.3-10.6-30.7-10.6-12.8 0-24.2 4.4-31.4 11.3-.1-50.1-31.1-102.8-62.2-103.7 61.7.4 113 44.6 124.3 103zM126 23v103.7c-7.2-6.9-18.6-11.3-31.4-11.3-12.8 0-24.2 4.4-31.4 11.3.1-50.1 31.1-102.8 62.2-103.7h.6z" fill="#353F49"/><path d="M188.9 126.7c-7.3-6.8-18.7-11.3-31.5-11.3s-24.2 4.4-31.4 11.3V23h.7c31.1.9 62.1 53.6 62.2 103.7z" fill="#E6E5E5"/><path fill="#ADECF7" d="M18.8 201.6H133v66.2H18.8z"/><path fill="#76D0DE" d="M18.8 198.5H133v66.2H18.8z"/><path fill="#ADECF7" d="M18.8 195.5H133v66.2H18.8z"/><path fill="#76D0DE" d="M18.8 192.4H133v66.2H18.8z"/><path fill="#ADECF7" d="M18.8 189.4H133v66.2H18.8z"/><path fill="#76D0DE" d="M18.8 186.3H133v66.2H18.8z"/><path fill="#ADECF7" d="M18.8 183.3H133v66.2H18.8z"/><path fill="#76D0DE" d="M18.8 180.2H133v66.2H18.8z"/><path d="M133 176.8V243H40.8l-3.4-3.4-15.1-15.1-3.5-3.5v-44.2H133z" fill="#ADECF7"/><path d="M129.6 180.3v59.3H37.4l-15.1-15.1v-44.2h107.3z" fill="#76D0DE"/><path d="M126 183.8V236H33.8l-8-8v-44.2H126z" fill="#ADECF7"/><path d="M55.9 209.9c0-11.1 9-20.1 20.1-20.1 11.1 0 20.1 9 20.1 20.1C96 221 87 230 75.9 230s-20-9-20-20.1z" fill="#76D0DE"/><g fill="#ADECF7"><path d="M82.2 210.4c-1.1-1.1-2.6-1.7-4.2-1.7h-4c-.7 0-1.2.6-1.2 1.3 0 .7.6 1.3 1.2 1.3h4c.9 0 1.8.4 2.4 1 .6.6 1 1.5 1 2.4 0 .9-.4 1.8-1 2.4-.6.6-1.5 1-2.4 1h-7.5v2.5H78c1.6 0 3.1-.6 4.2-1.8 1.1-1.1 1.8-2.6 1.8-4.2-.1-1.6-.7-3.1-1.8-4.2z"/><path d="M73.9 201.8h7.5v-2.5h-7.5c-1.6 0-3.1.6-4.2 1.7s-1.8 2.6-1.8 4.2.6 3.1 1.8 4.2c1.1 1.1 2.6 1.7 4.2 1.7h4c.7 0 1.2-.6 1.2-1.3 0-.7-.6-1.3-1.2-1.3h-4c-.9 0-1.8-.4-2.4-1-.7-.6-1-1.5-1-2.4 0-.9.4-1.8 1-2.4.6-.6 1.5-.9 2.4-.9z"/><path d="M74.7 197.8h2.5V222h-2.5z"/></g><path d="M129.6 196.5v-16.3h-16.3c1.5 8.4 8 14.9 16.3 16.3zm-107.3 0c8.3-1.5 14.8-8 16.3-16.3H22.3v16.3zm91 43.1h16.3v-16.3c-8.3 1.5-14.9 8-16.3 16.3z" fill="#76D0DE"/><path d="M40.8 221h-22l22 22v-22z" fill="#92DEEB"/></g></svg>