<svg width="220" height="251" viewBox="0 0 220 251" xmlns="http://www.w3.org/2000/svg"><title>Slice 1</title><g fill="none" fill-rule="evenodd"><path fill="#FFF" d="M108 207.5h3.9v23.6H108z"/><path d="M110 227.6c-6.2 0-11.3 5-11.3 11.3 0 6.2 5.1 11.3 11.3 11.3 6.2 0 11.3-5.1 11.3-11.3 0-6.3-5.1-11.3-11.3-11.3zm0 17.7c-3.6 0-6.4-2.9-6.4-6.4 0-3.5 2.9-6.4 6.4-6.4 3.6 0 6.4 2.9 6.4 6.4 0 3.5-2.8 6.4-6.4 6.4z" fill="#353F49"/><path d="M161.7 38.2L110 9.6 58.3 38.2l-1.9-3.4L110 5.1l53.6 29.7-1.9 3.4zM8.9 51.8h202.2v148.3H8.9z" fill="#FFF"/><path d="M23.1 63.3h38v3.4h-38zm0 7.4h30.7v3.4H23.1zm0 7.4h61.3v3.3H23.1zm0 7.4h26.8v3.4H23.1zm0 7.5h37v3.3h-37zm0 7.4h42.1v3.4H23.1zm0 7.4h55.3v3.3H23.1zm0 7.5h19v3.3h-19zm81.6 17.9h42.1v3.3h-42.1zm0 7.3h92.2v3.4h-92.2zm0 7.5H179v3.4h-74.3zm0 7.4h61.1v3.4h-61.1zm0 7.4h80v3.4h-80zm0 7.5h47.7v3.3h-47.7zm0 7.4h70.6v3.4h-70.6zm0 7.4H179v3.4h-74.3z" fill="#CCCBCA"/><path d="M187.9 73.1l-4.4 1.9-4.4 8.6-4.3.7-4.4 2.1-4.4.4-5.1-6.6-3.6 8-4.4 2.9-4.4-3.6-4.3 3.1-4.4 1.4-4.4 8.4-4.3 3.9-4.4-5.4-4.4-1.8-4.4 7.7-4.3-1.6-4.4 4.4-4.5 1.3v9.7h92.2V65.7l-4.7.7-4.3 6.7z" fill="#76D0DE"/><path d="M187.9 90.2l-4.4 1.2-4.4 5.3-4.3.5-4.4 2.2-4.4-.6-5.1-2.4-3.6 3.3-4.4 1.7-4.4-2.2-4.3 2-4.4.8-4.4 5.3-4.3 2.4-4.4-3.4-4.4-1.1-4.4 4.8-4.3-1-4.4 2.7-4.5.8v6.1h92.2V85.5l-4.7.6-4.3 4.1z" fill="#F2F2F2"/><path d="M187.9 105.6l-4.4.5-4.4 2.5-4.3.2-4.4 1.6-4.4-.9-5.1-1.9-3.6 2.4-4.4.7-4.4-.9-4.3.8-4.4.4-4.4 2.4-4.3 1.1-4.4-1.5-4.4-.6-4.4 2.3-4.3-.5-4.4 1.3-4.5.3v2.8h92.2v-18l-4.7 4.7-4.3.3zM66.4 160.8c0 4.3-1.7 8.2-4.6 11.1l8.5 8.5c5-5 8.1-11.9 8.1-19.5h-12v-.1z" fill="#474F59"/><path d="M50.7 133.2v12c8.7 0 15.7 7 15.7 15.7h12c.1-15.4-12.3-27.7-27.7-27.7z" fill="#E6E5E5"/><path d="M61.9 171.9c-2.8 2.9-6.8 4.6-11.1 4.6-8.6 0-15.7-7-15.7-15.7s7-15.7 15.7-15.7v-12c-15.3 0-27.7 12.4-27.7 27.7 0 15.3 12.4 27.7 27.7 27.7 7.7 0 14.6-3.1 19.6-8.1l-8.5-8.5z" fill="#76D0DE"/><path d="M.1 33.2h219.8v18.5H.1zM.1 200h219.8v7.5H.1zM117.2 7.4c0 4-3.2 7.2-7.2 7.2s-7.2-3.2-7.2-7.2S106 .2 110 .2s7.2 3.2 7.2 7.2z" fill="#353F49"/></g></svg>