<?xml version="1.0" encoding="utf-8"?>
<!-- Generator: Adobe Illustrator 18.1.1, SVG Export Plug-In . SVG Version: 6.00 Build 0)  -->
<svg version="1.1" id="Layer_1" xmlns="http://www.w3.org/2000/svg" xmlns:xlink="http://www.w3.org/1999/xlink" x="0px" y="0px"
	 width="122px" height="126px" viewBox="0 0 122 126" enable-background="new 0 0 122 126" xml:space="preserve">
<g>
	<path fill="#999999" d="M108.6,1H13.4C6.6,1,1,6.5,1,13.3v92.8c0,6.8,5.6,12.3,12.4,12.3h4.7v2.5c0,2.2,1.8,4,4,4h17.2
		c2.2,0,4-1.8,4-4v-2.5h35.2v2.5c0,2.2,1.8,4,4,4h17.2c2.2,0,4-1.8,4-4v-2.5h4.7c6.9,0,12.4-5.5,12.4-12.3V13.3
		C121,6.5,115.4,1,108.6,1z M39.4,121H22.2v-2.5h17.2C39.4,118.5,39.4,121,39.4,121z M99.8,121H82.6v-2.5h17.2V121z M115,106.1
		c0,3.5-2.9,6.3-6.4,6.3H13.4c-3.5,0-6.4-2.8-6.4-6.3V13.3C7,9.8,9.9,7,13.4,7h95.1c3.5,0,6.4,2.8,6.4,6.3L115,106.1L115,106.1z"/>
	<path fill="#999999" d="M39.5,45.2c-8.1,0-14.6,6.5-14.6,14.5s6.6,14.5,14.6,14.5s14.6-6.5,14.6-14.5S47.5,45.2,39.5,45.2z
		 M39.5,70.2c-5.8,0-10.6-4.7-10.6-10.5s4.7-10.5,10.6-10.5c5.8,0,10.6,4.7,10.6,10.5C50,65.5,45.3,70.2,39.5,70.2z"/>
	<ellipse fill="#999999" cx="39.5" cy="59.7" rx="4.3" ry="4.2"/>
	<path fill="#999999" d="M109.4,44.1c1.1,0,2.1-0.4,2.9-1.2c0.8-0.8,1.2-1.8,1.2-2.8V28c0-2.2-1.8-4-4-4H108V14H14.1v91.5h93.8v-10
		h1.5c1.1,0,2.1-0.4,2.9-1.2c0.8-0.8,1.2-1.8,1.2-2.8V79.4c0-2.2-1.8-4-4-4H108V44.1H109.4z M109.4,40.1h-7.1V28h7.1V40.1z
		 M109.4,91.5h-7.1V79.4h7.1V91.5z M103.9,75.4h-1.5c-2.2,0-4,1.8-4,4v12.1c0,1.1,0.4,2.1,1.2,2.8c0.8,0.8,1.8,1.2,2.9,1.2h1.5v6
		H18.1V18h85.7v6h-1.5c-2.2,0-4,1.8-4,4v12.1c0,1.1,0.4,2.1,1.2,2.8c0.8,0.8,1.8,1.2,2.9,1.2h1.5C103.9,44.1,103.9,75.4,103.9,75.4z
		"/>
</g>
</svg>
