<svg width="290" height="258" viewBox="0 0 290 258" xmlns="http://www.w3.org/2000/svg"><title>Slice 1</title><g fill="none" fill-rule="evenodd"><path fill="#21D8DE" d="M65.5 127.6H290v130.1H65.5z"/><path fill="#06B2B8" d="M72.3 134.4h210.9V251H72.3z"/><path fill="#21D8DE" d="M79.3 141.4h196.9V244H79.3z"/><path d="M138.4 192.7c0-21.8 17.6-39.4 39.4-39.4 21.7 0 39.4 17.7 39.4 39.4s-17.6 39.4-39.4 39.4c-21.8 0-39.4-17.7-39.4-39.4z" fill="#06B2B8"/><g fill="#21D8DE"><path d="M181.4 195.5h-7.3c-3 0-5.9-1.2-8.1-3.4-2.1-2.1-3.3-5-3.3-8.1 0-3 1.2-5.9 3.3-8.1 2.1-2.1 5-3.3 8-3.3h15.8v5.7H174c-1.5 0-3 .6-4 1.6-1.1 1.1-1.7 2.5-1.7 4s.6 2.9 1.6 4c1.1 1.1 2.5 1.7 4 1.7h7.3v5.9h.2z"/><path d="M181.4 212.6h-15.8v-5.8h15.8c1.5 0 2.9-.6 4-1.6 1-1 1.6-2.5 1.6-4s-.6-2.9-1.6-4c-1.1-1.1-2.5-1.7-4-1.7h-7.3v-5.8h7.3c3 0 5.9 1.2 8.1 3.4 2.1 2.1 3.3 5 3.3 8s-1.2 5.9-3.3 8.1c-2.2 2.2-5.1 3.4-8.1 3.4z"/><path d="M174.9 170.8h5.7v43.8h-5.7z"/></g><path d="M283.2 166.3v-32h-32c2.9 16.4 15.7 29.2 32 32zM72.3 219v32h32c-2.9-16.4-15.7-29.2-32-32zm0-52.7c16.3-2.8 29.1-15.7 32-32h-32v32zm179 84.7h32v-32c-16.4 2.8-29.2 15.6-32 32z" fill="#06B2B8"/><path d="M183.1.3c2.1 0 4.2.8 5.8 2.4 1.6 1.6 2.4 3.7 2.4 5.8v94.6c0 2.1-.8 4.2-2.4 5.8-1.6 1.6-3.7 2.4-5.8 2.4H33c-2.1 0-4.2-.8-5.8-2.4-1.6-1.6-2.4-3.7-2.4-5.8V8.5c0-2.1.8-4.2 2.4-5.8C28.8 1.1 30.9.3 33 .3h150.1z" fill="#FFF"/><path d="M129.7 55.8c0-8.1 4.1-15.3 10.3-19.6-2.3-.8-4.7-1.3-7.3-1.3-11.5 0-20.9 9.4-20.9 20.9 0 11.5 9.4 20.9 20.9 20.9 2.6 0 5.1-.5 7.3-1.4-6.2-4.3-10.3-11.4-10.3-19.5z" fill="#FF6D3B"/><g fill="#CCCBCA"><path d="M153.6 76.7c-11.5 0-20.9-9.4-20.9-20.9 0-11.5 9.4-20.9 20.9-20.9v1.3c-10.8 0-19.6 8.8-19.6 19.6s8.8 19.6 19.6 19.6v1.3z"/><path d="M153.6 76.7c-3 0-5.7-2.2-7.7-6.3-2-3.9-3-9.1-3-14.6s1.1-10.7 3-14.6c2-4.1 4.8-6.3 7.7-6.3v1.3c-2.5 0-4.8 2-6.6 5.6-1.9 3.8-2.9 8.7-2.9 14.1 0 5.3 1 10.3 2.9 14.1 1.8 3.6 4.2 5.6 6.6 5.6v1.1z"/><path d="M152.9 35.5h1.3V76h-1.3z"/><path d="M153.6 76.7v-1.3c2.5 0 4.8-2 6.6-5.6 1.9-3.7 2.9-8.7 2.9-14.1 0-5.3-1-10.3-2.9-14.1-1.8-3.6-4.2-5.6-6.6-5.6v-1.3c2.9 0 5.7 2.2 7.7 6.3 2 3.9 3 9.1 3 14.6s-1.1 10.7-3 14.6c-2 4.3-4.8 6.5-7.7 6.5z"/><path d="M153.6 76.7v-1.3c10.8 0 19.6-8.8 19.6-19.6s-8.8-19.6-19.6-19.6v-1.3c11.5 0 20.9 9.4 20.9 20.9 0 11.5-9.4 20.9-20.9 20.9z"/><path d="M136 45h35.1v1.3H136zm-2.7 10.1h40.6v1.3h-40.6zm2.7 10.2h35.1v1.3H136z"/></g><path d="M69.3 64.5c0 1.2-1 2.2-2.2 2.2H43.8c-1.2 0-2.2-1-2.2-2.2V47c0-1.2 1-2.2 2.2-2.2H67c1.2 0 2.2 1 2.2 2.2v17.5h.1z" fill="#FFD55C"/><path fill="#FFB733" d="M41.6 50.2h27.6v11.1H41.6z"/><path d="M41.6 89.9h27.6v3.3H41.6zm35.1 0h27.6v3.3H76.7zm35 0h27.7v3.3h-27.7zm35.1 0h27.7v3.3h-27.7z" fill="#CCCBCA"/><path fill="#242D3C" d="M41.6 13.6h62.7v7.8H41.6z"/><path fill="#FF6D3B" d="M24.8 24.9h166.4v1.6H24.8z"/><path fill="#FFC640" d="M9.3 244h65.5v13.7H9.3z"/><path fill="#FFD55C" d="M9.3 242.6h65.5v13.7H9.3z"/><path fill="#FFB733" d="M0 228.9h65.5v13.7H0z"/><path fill="#FFC640" d="M0 227.6h65.5v13.7H0zm14.6-13.7h65.5v13.7H14.6z"/><path fill="#FFD55C" d="M14.6 212.5h65.5v13.7H14.6z"/><path fill="#FFC640" d="M16.7 198.8h65.5v13.7H16.7z"/><path fill="#FFB733" d="M16.7 197.4h65.5v13.7H16.7zm-5.9-13.7h65.5v13.7H10.8z"/><path fill="#FFC640" d="M10.8 182.4h65.5v13.7H10.8z"/><path fill="#FFB733" d="M13 168.7h65.5v13.7H13z"/><path fill="#FFC640" d="M13 167.3h65.5V181H13zm-3.7-13.7h65.5v13.7H9.3z"/><path fill="#FFD55C" d="M9.3 152.2h65.5v13.7H9.3z"/><path d="M135.6 224.9c0 18.1-14.7 32.8-32.8 32.8-18.1 0-32.8-14.7-32.8-32.8 0-18.1 14.7-32.8 32.8-32.8 18.1 0 32.8 14.7 32.8 32.8z" fill="#FFB733"/><path d="M129 224.9c0 14.5-11.7 26.2-26.2 26.2s-26.2-11.7-26.2-26.2 11.7-26.2 26.2-26.2 26.2 11.7 26.2 26.2z" fill="#FFD55C"/><g fill="#FFB733"><path d="M105.6 227.1h-5.5c-2.3 0-4.5-.9-6.1-2.5-1.6-1.6-2.5-3.7-2.5-6s.9-4.5 2.5-6.1c1.6-1.6 3.7-2.5 6.1-2.5H112v4.3h-11.9c-1.2 0-2.2.4-3 1.2-.8.8-1.2 1.9-1.2 3s.4 2.2 1.2 3c.8.8 1.9 1.3 3 1.3h5.5v4.3z"/><path d="M105.6 239.9h-12v-4.3h11.9c1.1 0 2.2-.4 3-1.2.8-.8 1.2-1.9 1.2-3 0-1.2-.5-2.2-1.2-3-.8-.8-1.9-1.3-3-1.3H100v-4.3h5.5c2.3 0 4.4.9 6.1 2.5 1.6 1.6 2.5 3.7 2.5 6.1 0 2.3-.9 4.5-2.5 6.1-1.6 1.5-3.8 2.4-6 2.4z"/><path d="M100.7 208.4h4.3v33h-4.3z"/></g></g></svg>